<svg height="512" viewBox="0 0 42 60" width="512" xmlns="http://www.w3.org/2000/svg"><g id="Page-1" fill="none" fill-rule="evenodd"><g id="002---Elderly-Man" fill-rule="nonzero" transform="translate(-1)"><path id="Shape" d="m38 23c-.3377372.0030533-.6742693-.0406959-1-.13v1.63c0 4.1421356-3.3578644 7.5-7.5 7.5h-.32c-.6940021.0065422-1.3359987.3690814-1.7.96-.4449388.7183487-1.0217452 1.3460498-1.7 1.85-2.2703827 1.5862354-5.2896173 1.5862354-7.56 0-.6782548-.5039502-1.2550612-1.1316513-1.7-1.85-.3640013-.5909186-1.0059979-.9534578-1.7-.96h-.32c-4.1421356 0-7.5-3.3578644-7.5-7.5v-.54c.00376189-.2540067-.09479358-.498853-.27348025-.6794206-.17868668-.1805676-.42248754-.2816814-.67651975-.2805794h-.03c-1.69871575.0337444-3.22715202-1.0268855-3.79-2.63-.38119446-1.0613497-.29809749-2.2341259.22894094-3.2311228s1.44934747-1.7261439 2.54105906-2.0088772c.32573075-.0893041.66226279-.1330533 1-.13h1v2c-.00276142 1.1045695.8904305 2.0022386 1.995 2.005s2.0022386-.8904305 2.005-1.995v1.99c0 1.6568542 1.3431458 3 3 3h3c1.6568542 0 3-1.3431458 3-3v-4h4v4c0 .7956495.3160705 1.5587112.8786797 2.1213203.5626091.5626092 1.3256708.8786797 2.1213203.8786797h3c1.6568542 0 3-1.3431458 3-3v-1.99c.0017863.7145312.3846348 1.3738322 1.0043301 1.7295508s1.382091.3538126 2-.005.9974562-1.0200196.9956699-1.7345508v-2s.26-.01.56-.01c.23 0 .48.01.66.02.2642225.0123689.5260483.0560065.78.13 1.9522442.4982323 3.2272094 2.3731403 2.972921 4.3718475-.2542885 1.9987071-1.9581131 3.4946342-3.972921 3.4881525z" fill="#e8edfc"/><path id="Shape" d="m41.95 18.35c-.3224619-1.841324-1.8643802-3.222023-3.73-3.34-.386-.021-.772-.027-1.22-.01v.557c1.7371058.9936476 2.4681542 3.1212865 1.7086238 4.9727685-.7595304 1.8514819-2.774153 2.8527688-4.7086238 2.3402315v1.63c.0001555 2.0452911-.8343264 4.0020733-2.3104523 5.4177951-1.4761258 1.4157217-3.466047 2.167766-5.5095477 2.0822049-.6940021.0065422-1.3359987.3690814-1.7.96-.8711351 1.4650192-2.3134167 2.5007078-3.98 2.858 2.7020342.6864152 5.5352957-.4736795 6.98-2.858.3640013-.5909186 1.0059979-.9534578 1.7-.96 2.0429572.083551 4.031722-.66916 5.507396-2.0844484s2.3107738-3.3708874 2.312604-5.4155516v-1.63c1.3092972.3390669 2.7012636-.0064586 3.7000131-.918448.9987495-.9119895 1.4690019-2.2669143 1.2499869-3.601552z" fill="#cad9fc"/><path id="Shape" d="m27 38s-1 4-5 4-5-4-5-4c.6173864-.970302 1.0323559-2.0553452 1.22-3.19 2.2703827 1.5862354 5.2896173 1.5862354 7.56 0 .1876441 1.1346548.6026136 2.219698 1.22 3.19z" fill="#cad9fc"/><g fill="#e8edfc"><path id="Shape" d="m22 42c-1.8372759.0343876-3.394581 1.361446-3.72 3.17-.0087915.0413734-.0222092.0816264-.04.12-.1088013.2966381-.3421558.5306815-.6384718.6403569s-.6258147.0839607-.9015282-.0703569c-3.07-1.72-3.7-5.86-3.7-5.86 1.0377386-1.1415404 2.4641245-1.8547334 4-2 0 0 1 4 5 4z"/><path id="Shape" d="m31 40s-.63 4.14-3.7 5.86c-.2757135.1543176-.6052122.1800323-.9015282.0703569s-.5296705-.3437188-.6384718-.6403569c-.0177908-.0383736-.0312085-.0786266-.04-.12-.3286489-1.8066961-1.8840462-3.1321287-3.72-3.17 4 0 5-4 5-4 1.5358755.1452666 2.9622614.8584596 4 2z"/><path id="Shape" d="m41 49v7c0 1.6568542-1.3431458 3-3 3h-32c-1.65685425 0-3-1.3431458-3-3v-7c0-4.9705627 4.02943725-9 9-9h1s.63 4.14 3.7 5.86c.2757135.1543176.6052122.1800323.9015282.0703569s.5296705-.3437188.6384718-.6403569c.4142674.4967483.9244308.904879 1.5 1.2 1.4299264.6800645 3.0900736.6800645 4.52 0 .5755692-.295121 1.0857326-.7032517 1.5-1.2.1088013.2966381.3421558.5306815.6384718.6403569s.6258147.0839607.9015282-.0703569c3.07-1.72 3.7-5.86 3.7-5.86h1c4.9705627 0 9 4.0294373 9 9z"/></g><path id="Shape" d="m32 40h-1s-.013.083-.041.22c4.1131277.9172839 7.0390293 4.5658304 7.041 8.78v7c0 1.6568542-1.3431458 3-3 3h3c1.6568542 0 3-1.3431458 3-3v-7c0-4.9705627-4.0294373-9-9-9z" fill="#cad9fc"/><path id="Shape" d="m34.83 8.24c-1.1111883.46627244-1.8330303 1.5549522-1.83 2.76v4h-22v-4c.0030303-1.2050478-.7188117-2.29372756-1.83-2.76 2.7136821-4.49362632 7.5805478-7.24001678 12.83-7.24001678s10.1163179 2.74639046 12.83 7.24001678z" fill="#e8edfc"/><path id="Shape" d="m22 1c-.5010794.00236549-1.0017186.03006753-1.5.083 4.6923473.47023363 8.8896938 3.1216378 11.33 7.157-1.1111883.46627244-1.8330303 1.5549522-1.83 2.76v4h3v-4c-.0030303-1.2050478.7188117-2.29372756 1.83-2.76-2.7128317-4.49449996-7.5802396-7.24119003-12.83-7.24z" fill="#cad9fc"/><path id="Shape" d="m11 11v4h-5c-.33773721-.0030533-.67426925.0406959-1 .13v-4.13c0-1.65685425 1.34314575-3 3-3 .40257955-.00359531.80134704.07820315 1.17.24 1.1111883.46627244 1.8330303 1.5549522 1.83 2.76z" fill="#a4c2f7"/><path id="Shape" d="m37.0000063 15-.0000063 2c.0017863.7145312-.3777609 1.3757382-.9956699 1.7345508s-1.3803047.3607186-2 .005-1.0025438-1.0150196-1.0043301-1.7295508v-2.01z" fill="#e8edfc"/><path id="Shape" d="m39 11v4.14c-.2539517-.0739935-.5157775-.1176311-.78-.13-.18-.01-.43-.02-.66-.02-.3 0-.56.01-.56.01h-4v-4c-.0030303-1.2050478.7188117-2.29372756 1.83-2.76.368653-.16179685.7674204-.24359531 1.17-.24 1.6568542 0 3 1.34314575 3 3z" fill="#a4c2f7"/><path id="Shape" d="m34 15c.24 0 1.712-.01.56-.01-.3 0-.56.01-.56.01z" fill="#cad9fc"/><path id="Shape" d="m34.49 8.412c.9354947.52491869 1.5133464 1.51530308 1.51 2.588v4c1.0017676-.0873806 2.010724-.0402959 3 .14v-4.14c-.0015292-1.0730977-.5761166-2.06365729-1.5068605-2.5977516-.9307439-.5340943-2.0758837-.53037588-3.0031395.0097516z" fill="#7facfa"/><path id="Shape" d="m11 15v2.01c-.0027614 1.1045695-.9004305 1.9977614-2.005 1.995s-1.99776142-.9004305-1.995-2.005l-.00000639-2z" fill="#e8edfc"/><path id="Shape" d="m20 15v4c0 1.6568542-1.3431458 3-3 3h-3c-1.6568542 0-3-1.3431458-3-3v-4z" fill="#e8edfc"/><path id="Shape" d="m17 15v4c0 1.6568542-1.3431458 3-3 3h3c1.6568542 0 3-1.3431458 3-3v-4z" fill="#cad9fc"/><path id="Shape" d="m33 15v4c0 1.6568542-1.3431458 3-3 3h-3c-1.6568542 0-3-1.3431458-3-3v-4z" fill="#e8edfc"/><path id="Shape" d="m30 15v4c0 1.6568542-1.3431458 3-3 3h3c1.6568542 0 3-1.3431458 3-3v-4z" fill="#cad9fc"/><path id="Shape" d="m25.76 45.29c-.4142674.4967483-.9244308.904879-1.5 1.2-1.4299264.6800645-3.0900736.6800645-4.52 0-.5755692-.295121-1.0857326-.7032517-1.5-1.2.0177908-.0383736.0312085-.0786266.04-.12.2942848-1.8260271 1.8704113-3.1684802 3.72-3.1684802s3.4257152 1.3424531 3.72 3.1684802c.0087915.0413734.0222092.0816264.04.12z" fill="#a4c2f7"/><path id="Shape" d="m25.58 52.62-2.95 2.17c-.3733333.28-.8866667.28-1.26 0l-2.95-2.17c-.3587849-.2631735-.508012-.7269875-.37-1.15l1.69-4.98c1.4299264.6800645 3.0900736.6800645 4.52 0l1.69 4.98c.138012.4230125-.0112151.8868265-.37 1.15z" fill="#a4c2f7"/><path id="Shape" d="m6.05 23c.25403221-.001102.49783307.1000118.67651975.2805794.17868667.1805676.27724214.4254139.27348025.6794206v.54c-.00015551 2.0452911.83432642 4.0020733 2.31045228 5.4177951 1.47612582 1.4157217 3.46604702 2.167766 5.50954772 2.0822049.6940021.0065422 1.3359987.3690814 1.7.96.4449388.7183487 1.0217452 1.3460498 1.7 1.85-.1876441 1.1346548-.6026136 2.219698-1.22 3.19-1.5358755.1452666-2.9622614.8584596-4 2h-1c-4.97056275 0-9 4.0294373-9 9v7c0 1.6568542 1.34314575 3 3 3h3c-1.65685425 0-3-1.3431458-3-3v-7c0-4.9705627 4.0294373-9 9-9h1c1.0377386-1.1415404 2.4641245-1.8547334 4-2 .6173864-.970302 1.0323559-2.0553452 1.22-3.19-.6782548-.5039502-1.2550612-1.1316513-1.7-1.85-.3640013-.5909186-1.0059979-.9534578-1.7-.96-2.0435007.0855611-4.0334219-.6664832-5.5095477-2.0822049-1.4761259-1.4157218-2.31060781-3.372504-2.3104523-5.4177951v-.54c.0037619-.2540067-.09479358-.498853-.27348025-.6794206-.17868668-.1805676-.42248754-.2816814-.67651975-.2805794-1.7101247.0485055-3.25506155-1.0151552-3.82-2.63-.38119446-1.0613497-.29809749-2.2341259.22894094-3.2311228s1.44934747-1.7261439 2.54105906-2.0088772v-4.13c.00081939-1.00573074.50554355-1.94413926 1.34421424-2.49923066.83867066-.55509139 1.89969376-.65300479 2.82578576-.26076934 2.4247643-4.04786712 6.6320798-6.69925567 11.33-7.14-5.7587203-.60923471-11.3482775 2.17579242-14.33 7.14-.92609197-.39223545-1.98711506-.29432205-2.82578576.26076934-.83867069.5550914-1.34339485 1.49349992-1.34421424 2.49923066v4.13c-1.09171159.2827333-2.01402063 1.0118803-2.54105906 2.0088772s-.6101354 2.1697731-.22894094 3.2311228c.56493845 1.6148448 2.1098753 2.6785055 3.82 2.63z" fill="#fff"/><path id="Shape" d="m2.064 47.892 1.988.22c-.028.295-.032.592-.052.888v7h-2v-7c.02-.369.028-.74.064-1.108z" fill="#fff"/><path id="Shape" d="m3.02 53c-.55228475.0027614-1.00223858-.4427153-1.005-.995s.44271525-1.0022386.995-1.005h.01c.55228475 0 1 .4477153 1 1s-.44771525 1-1 1z" fill="#428dff"/><path id="Shape" d="m15 8.511c.2334328-.00005808.4594902-.08177835.639-.231 1.5461015-1.28419862 3.4476368-2.0653982 5.45-2.239.5503518-.04915334.9566533-.53514825.9075-1.0855s-.5351482-.95665334-1.0855-.9075c-2.4065711.20994624-4.6917231 1.14947513-6.55 2.693-.3247138.26906666-.4457359.71291747-.3025389 1.10956657.1431971.3966491.5198332.66083686.9415389.66043343z" fill="#428dff"/><path id="Shape" d="m6 23.96v.54c.00551044 4.692136 3.80786402 8.4944896 8.5 8.5h.319c.3499043.0077693.671764.1931966.854.492.3978585.6328773.8844859 1.20538 1.445 1.7-.1609127.6572883-.4094729 1.2899563-.739 1.881-1.4084307.2742725-2.7101564.9424732-3.754 1.927h-.625c-5.08880696.0125753-9.36088976 3.8357798-9.936 8.892-.0395207.2743577.04022148.5525158.21909848.7642634.178877.2117475.43979753.3368525.71690152.3437366.5244329.0116663.9754629-.369051 1.052-.888.46294815-4.0429302 3.87867007-7.0993739 7.948-7.112h.2c.5375955 2.3631373 1.9805845 4.4211648 4.019 5.732.5730424.3218396 1.2649096.3522758 1.864.082.0643425-.0335055.1267722-.0705627.187-.111.09.073.18.144.273.211l-1.443 4.241c-.2733329.8345662.0198207 1.7503186.727 2.271l2.939 2.162c.3556904.2676718.7888441.4122904 1.234.412.4390155.0027464.866963-.1376794 1.219-.4l2.961-2.18c.7040392-.5229515.9931249-1.4385911.717-2.271l-1.438-4.235c.093-.067.183-.138.273-.211.0602278.0404373.1226575.0774945.187.111.5990904.2702758 1.2909576.2398396 1.864-.082 2.0376599-1.3112163 3.4798942-3.3691916 4.017-5.732h.2c4.4162219.0049599 7.9950401 3.5837781 8 8v7c0 1.1045695-.8954305 2-2 2h-3v-7c0-.5522847-.4477153-1-1-1s-1 .4477153-1 1v7h-22v-7c0-.5522847-.4477153-1-1-1-.55228475 0-1 .4477153-1 1v7h-3c-1.1045695 0-2-.8954305-2-2 0-.5522847-.44771525-1-1-1s-1 .4477153-1 1c0 2.209139 1.790861 4 4 4h32c2.209139 0 4-1.790861 4-4v-7c-.0060624-5.5203344-4.4796656-9.9939376-10-10h-.625c-1.0432055-.9854511-2.3445964-1.6546983-3.753-1.93-.3297151-.5916609-.5782806-1.2250152-.739-1.883.5594915-.4950679 1.0453988-1.0675158 1.443-1.7.1828427-.2970066.5042845-.4805261.853-.487h.32c4.6925265-.0049595 8.4954885-3.8074741 8.501-8.5v-.5c2.3653864-.0027833 4.4051971-1.6627178 4.8885932-3.9781851s-.7218961-4.6528764-2.8885932-5.6018149v-3.42c-.0038531-2.20754103-1.792459-3.99614691-4-4-.2470505.00175556-.493418.02619147-.736.073-2.9671718-4.42207991-7.9430936-7.07447561-13.2684007-7.0726692-5.3253071.00180642-10.2994283 2.6575773-13.2635993 7.0816692-1.29301895-.22922771-2.61744095.17665555-3.56 1.091-.75248298.7480317-1.17449521 1.76597416-1.172 2.827v3.418c-1.01590639.4428433-1.85614597 1.2102786-2.389 2.182-.67894889 1.253276-.7997916 2.7342343-.333 4.081.67722764 2.0158065 2.59661472 3.3486465 4.722 3.279zm11.192 21.026c-2.02-1.13-2.832-3.587-3.1-4.641.6431407-.5741903 1.4089559-.9938666 2.239-1.227.5298423 1.2535668 1.4304703 2.3150585 2.581 3.042-.8054262.7436098-1.3664411 1.7139668-1.609 2.783zm7.432.014c-1.4942829 1.3359164-3.7537171 1.3359164-5.248 0 .3256259-1.1804708 1.3994415-1.9981851 2.624-1.9981851s2.2983741.8177143 2.624 1.9981851zm.364 6.816-3.026 2.17-2.962-2.194 1.362-4.014c1.0727126.2953175 2.2052874.2953175 3.278 0zm1.82-6.828.487.873-.6-.916c-.2425589-1.0690332-.8035738-2.0393902-1.609-2.783 1.149908-.7272142 2.0503809-1.7881743 2.581-3.041.8308985.2330153 1.5974612.6530684 2.241 1.228-.262 1.051-1.067 3.5-3.1 4.637zm-.9-6.863c-.5321001 1.711668-2.116033 2.8779787-3.9085 2.8779787s-3.3763999-1.1663107-3.9085-2.8779787c.3204091-.5698802.5817657-1.1710003.78-1.794 1.9895922.8952751 4.2674078.8952751 6.257 0 .1984199.6222906.4597714 1.2227288.78 1.792zm-.908-22.125h7v3c0 1.1045695-.8954305 2-2 2h-3c-1.1045695 0-2-.8954305-2-2zm8.9999894 0h2.0000106v1.009c.0021392.258278-.0990297.5066999-.281.69-.3984083.3829036-1.0261816.389041-1.432.014-.1849395-.1858886-.2882178-.4377869-.287-.7zm3.4130106-6.413c.3764379.37376047.5877938.8825269.587 1.413v2.994c-.3496289-.025146-.7006813-.02314-1.05.006h-2.9500071l.0000071-3c-.0021616-.8098528.4871527-1.54006645 1.237-1.846.2403375-.10548522.500563-.15800781.763-.154.5302153-.00097285 1.0387372.21043111 1.412.587zm-15.413-7.587c4.5520164-.01660069 8.8230698 2.19907132 11.431 5.93-.9100337.75943452-1.4345558 1.8847197-1.431 3.07v3h-20v-3c.0028449-1.18518954-.5210895-2.31036605-1.43-3.071 2.6077173-3.7305242 6.878438-5.9458438 11.43-5.929zm-14 14h2.0000106l-.0000106 1.01c.0012178.2622131-.10206046.5141114-.287.7-.4058884.3752656-1.03406151.3686856-1.432-.015-.18311582-.184585-.28436924-.435016-.281-.695zm4 0h7v3c0 1.1045695-.8954305 2-2 2h-3c-1.1045695 0-2-.8954305-2-2zm-6-5c0-1.1045695.8954305-2 2-2s2 .8954305 2 2v3h-2.99-.01-1zm-2.632 6.561c.39307954-.7205242 1.0642045-1.2485337 1.857-1.461.021 0 .041-.01.062-.017.23294568-.0591014.47270734-.0870119.713-.083v.991c-.00905603.7918961.30088447 1.5541335.86 2.115.85596495.8230256 2.10685956 1.0847775 3.221.674.3736119 1.8691825 2.0128486 3.2160419 3.919 3.22h3c2.209139 0 4-1.790861 4-4v-3h2v3c0 2.209139 1.790861 4 4 4h3c1.9069037-.0030071 3.5472393-1.3500819 3.921-3.22 1.1135625.4099358 2.3634319.1482359 3.219-.674.5578337-.5580368.8677611-1.3169986.86-2.106v-1l.166.008c1.3979513.088454 2.5543578 1.1209598 2.8 2.5.1447819.8708502-.101351 1.7612643-.6728511 2.4341161-.5715002.6728518-1.4103476 1.059832-2.2931489 1.0578839-.2468057.0031428-.4928434-.0281588-.731-.093-.3011937-.0841218-.6243978-.0225-.8735101.1665427-.2491124.1890427-.3954461.4837368-.3954899.7964573v1.63c-.0044079 3.5880235-2.9119765 6.4955921-6.5 6.5h-.32c-1.0384457.0029585-2.0015103.5427437-2.546 1.427-.9967246 1.6000237-2.7484175 2.5725907-4.6335 2.5725907s-3.6367754-.972567-4.6335-2.5725907c-.5450511-.8851626-1.5094858-1.4250795-2.549-1.427h-.318c-3.5880235-.0044079-6.4955921-2.9119765-6.5-6.5v-.54c-.00069091-.5293977-.21271894-1.0366091-.589-1.409-.37460172-.3628805-.87855564-.5612224-1.4-.551-1.25889334.0077835-2.38974109-.7684527-2.835-1.946-.28944536-.8208255-.22049556-1.7255194.19-2.493z" fill="#428dff"/></g></g></svg>