<svg height="512" viewBox="0 0 38 60" width="512" xmlns="http://www.w3.org/2000/svg"><g id="Page-1" fill="none" fill-rule="evenodd"><g id="003---Elderly-Woman" fill-rule="nonzero" transform="translate(0 -1)"><path id="Shape" d="m36.65 32.69c-.6023484 1.3520131-1.9209371 2.2439995-3.4 2.3h-.04c-.7269869.0709513-1.3124197.6275248-1.42 1.35-.6033474 3.5471526-3.2964251 6.3746865-6.81 7.15-.3989472.0871334-.7638357.2886908-1.05.58-.2756871.2906187-.5806365.5520039-.91.78-2.4605942 1.5336331-5.5794058 1.5336331-8.04 0-.3293635-.2279961-.6343129-.4893813-.91-.78-.2861643-.2913092-.6510528-.4928666-1.05-.58-3.51357487-.7753135-6.2066526-3.6028474-6.81-7.15-.10758028-.7224752-.69301313-1.2790487-1.42-1.35h-.04c-1.47906285-.0560005-2.79765155-.9479869-3.4-2.3-.64712305-1.4464739-.39330605-3.1372856.65-4.33.75700794-.8648509 1.85064029-1.3606309 3-1.36h1v3c0 1.6568542 1.34314575 3 3 3h5c1.6568542 0 3-1.3431458 3-3v-3c-.0032948-1.1032019-.8967981-1.9967052-2-2h-9v-2.32c-.0162178-2.8566788 1.55977958-5.4846445 4.0874281-6.8157606 2.5276485-1.331116 5.5862252-1.1438204 7.9325719.4857606h.01c.5847965.400047 1.3552035.400047 1.94 0l.1-.06c2.5003339-1.6718857 5.7485331-1.7227612 8.3-.13 2.2999845 1.4905769 3.6713656 4.0595553 3.63 6.8v2.04h-9c-1.1045695 0-2 .8954305-2 2v3c0 1.6568542 1.3431458 3 3 3h5c1.6568542 0 3-1.3431458 3-3v-3h1c1.1493597-.0006309 2.2429921.4951491 3 1.36 1.043306 1.1927144 1.2971231 2.8835261.65 4.33z" fill="#e8edfc"/><path id="Shape" d="m29 22.96v2.04h3v-2.04c.0781889-2.346316-.9200888-4.5997392-2.7104314-6.1182864s-4.1764612-2.1357285-6.4785686-1.6757136c3.6823902.7496538 6.2931961 4.0375227 6.189 7.794z" fill="#cad9fc"/><path id="Shape" d="m36 28.36c-1.288-1.46-2.743-1.36-4-1.36v.563c3.517 2.061 2.056 7.427-1.79 7.427-.7269869.0709513-1.3124197.6275248-1.42 1.35-.6033474 3.5471526-3.2964251 6.3746865-6.81 7.15-.3989472.0871334-.7638357.2886908-1.05.58-.9252103.9408356-2.1271077 1.5610567-3.43 1.77 1.8987021.4022196 3.8794157.0469829 5.52-.99 1.056-.746.951-1.1 1.96-1.36 3.5135749-.7753135 6.2066526-3.6028474 6.81-7.15.1075803-.7224752.6930131-1.2790487 1.42-1.35 1.535877-.0688058 2.8948576-1.0158395 3.4911766-2.4328985.5963189-1.417059.3233779-3.050829-.7011766-4.1971015z" fill="#cad9fc"/><path id="Shape" d="m17 27v3c0 1.6568542-1.3431458 3-3 3h-5c-1.65685425 0-3-1.3431458-3-3v-5h9c1.1032019.0032948 1.9967052.8967981 2 2z" fill="#e8edfc"/><path id="Shape" d="m15 25h-3c1.1032019.0032948 1.9967052.8967981 2 2v3c0 1.6568542-1.3431458 3-3 3h3c1.6568542 0 3-1.3431458 3-3v-3c-.0032948-1.1032019-.8967981-1.9967052-2-2z" fill="#cad9fc"/><path id="Shape" d="m32 25v5c0 1.6568542-1.3431458 3-3 3h-5c-1.6568542 0-3-1.3431458-3-3v-3c0-1.1045695.8954305-2 2-2z" fill="#e8edfc"/><path id="Shape" d="m29 25v5c0 1.6568542-1.3431458 3-3 3h3c1.6568542 0 3-1.3431458 3-3v-5z" fill="#cad9fc"/><path id="Shape" d="m24 47s0 1.34-.17 3.23c-1.5523768.5379674-3.1872997.7986073-4.83.77-1.6427003.0286073-3.2776232-.2320326-4.83-.77-.17-1.89-.17-3.23-.17-3.23.4253644-.6674406.7552301-1.3911256.98-2.15 2.4605942 1.5336331 5.5794058 1.5336331 8.04 0 .2247699.7588744.5546356 1.4825594.98 2.15z" fill="#cad9fc"/><path id="Shape" d="m23.83 50.23c-.28 2.98-.99 7.32-2.83 9.77h-4c-1.84-2.45-2.55-6.79-2.83-9.77 1.5523768.5379674 3.1872997.7986073 4.83.77 1.6427003.0286073 3.2776232-.2320326 4.83-.77z" fill="#a4c2f7"/><path id="Shape" d="m20.758 50.9c-.321 2.932-1.05 6.822-2.758 9.1h3c1.84-2.45 2.55-6.79 2.83-9.77-.993078.3469528-2.0246397.5719353-3.072.67z" fill="#7facfa"/><path id="Shape" d="m17 60h-13c-1.10320187-.0032948-1.9967052-.8967981-2-2v-3c0-4.418278 3.581722-8 8-8h4s0 9 3 13z" fill="#e8edfc"/><path id="Shape" d="m36 55v3c-.0032948 1.1032019-.8967981 1.9967052-2 2h-13c3-4 3-13 3-13h4c4.418278 0 8 3.581722 8 8z" fill="#e8edfc"/><path id="Shape" d="m28 47h-3c4.418278 0 8 3.581722 8 8v3c-.0032948 1.1032019-.8967981 1.9967052-2 2h3c1.1032019-.0032948 1.9967052-.8967981 2-2v-3c0-4.418278-3.581722-8-8-8z" fill="#cad9fc"/><path id="Shape" d="m36 23v5.36c-.7570079-.8648509-1.8506403-1.3606309-3-1.36h-1v-4.04c.0413656-2.7404447-1.3300155-5.3094231-3.63-6.8-2.5929942-1.5967724-5.8818557-1.5223815-8.4.19-.5847965.400047-1.3552035.400047-1.94 0h-.01c-.7175316-.4996963-1.5159127-.8718231-2.36-1.1-2.3067406-.6105005-4.7661914-.1158895-6.65759247 1.3388838-1.89140105 1.4547733-3.00055178 3.7049561-3.00240753 6.0911162v4.32h-1c-1.14935971-.0006309-2.24299206.4951491-3 1.36v-5.36c0-8.836556 7.163444-16 16-16h2c4.2434638 0 8.3131264 1.68570945 11.3137085 4.6862915 3.0005821 3.0005821 4.6862915 7.0702447 4.6862915 11.3137085z" fill="#a4c2f7"/><path id="Shape" d="m27.95 9.11c-3.115-1.559-4.839-2.266-10.45-2.094 8.6390614.25961123 15.5060633 7.3410408 15.5 15.984v4c1.1493597-.0006309 2.2429921.4951491 3.000004 1.36l-.000004-5.36c.0040283-5.739207-3.0682503-11.0403188-8.05-13.89z" fill="#7facfa"/><path id="Shape" d="m27.77 9.01c-2.3760262-1.3221109-5.050908-2.01406876-7.77-2.01h-2c-2.719092-.00406876-5.3939738.6878891-7.77 2.01.9259862-4.09896547 4.5677425-7.00979304 8.77-7.00979304s7.8440138 2.91082757 8.77 7.00979304z" fill="#a4c2f7"/><g fill="#fff"><path id="Shape" d="m4.79 34.99c.72698687.0709513 1.31241972.6275248 1.42 1.35.6033474 3.5471526 3.29642513 6.3746865 6.81 7.15 1 .257.92.626 1.96 1.36-.2247699.7588744-.5546356 1.4825594-.98 2.15h3c.4253644-.6674406.7552301-1.3911256.98-2.15-1.04-.734-.958-1.1-1.96-1.36-3.5135749-.7753135-6.2066526-3.6028474-6.81-7.15-.10758028-.7224752-.69301313-1.2790487-1.42-1.35-3.292 0-5.01-4.083-2.79-6.63v-5.36c-.00332776-5.8479074 3.1867574-11.2309364 8.318-14.036l-.088.046c.8062701-3.55444813 3.6767142-6.27169664 7.27-6.882-4.7090822-.8036583-9.2228092 2.22102223-10.27 6.882l.088-.046c-5.1312426 2.8050636-8.32132776 8.1880926-8.318 14.036v5.36c-2.22 2.547-.5 6.63 2.79 6.63z"/><path id="Shape" d="m2 55v3c.0032948 1.1032019.89679813 1.9967052 2 2h3c-1.10320187-.0032948-1.9967052-.8967981-2-2v-3c0-4.418278 3.581722-8 8-8h-3c-4.418278 0-8 3.581722-8 8z"/><path id="Shape" d="m3.085 14.851 1.754.96c-1.20305617 2.2054238-1.83524884 4.676785-1.839 7.189h-2c.00374837-2.8478064.72054832-5.6493426 2.085-8.149z"/></g><path id="Shape" d="m.431 33.079c.76352198 1.7092095 2.42953979 2.8382271 4.3 2.914.26440066.0495992.46509563.2665447.494.534.67413103 3.923253 3.64740988 7.0528748 7.531 7.927.2164352.0432168.4171743.1441047.581.292.1456138.1552275.2998582.3021269.462.44-.1084116.2788342-.2339852.5506877-.376.814h-3.423c-4.96805005.006061-8.99393904 4.0319499-9 9v3c0 1.6568542 1.34314575 3 3 3h30c1.6568542 0 3-1.3431458 3-3v-3c-.006061-4.9680501-4.0319499-8.993939-9-9h-3.427c-.1420148-.2633123-.2675884-.5351658-.376-.814.1621418-.1378731.3163862-.2847725.462-.44.164077-.1480966.3651939-.2490006.582-.292 3.8834945-.8746222 6.8563823-4.0046427 7.53-7.928.0336838-.2795935.2535346-.5002693.533-.535 1.8583164-.0849387 3.5092822-1.2121632 4.265-2.912.7353916-1.6630335.5179503-3.5932551-.569-5.051v-5.028c-.012174-6.0174199-3.1939056-11.5832652-8.373-14.647-1.1831678-4.34210517-5.1265819-7.35476631-9.627-7.35476631s-8.4438322 3.01266114-9.627 7.35476631c-2.64021035 1.56454102-4.8118337 3.8093807-6.288 6.5-.13839287.2356774-.17117007.5187295-.09029992.7797974.08087016.2610678.26791452.4760265.51529992.5922026.48300138.2253414 1.05816123.0470375 1.329-.412 1.33316567-2.4305375 3.30790299-4.4485122 5.709-5.834 2.2695373-1.29672365 4.8381347-1.97885654 7.452-1.979h2c3.979305-.00345322 7.7966204 1.57579044 10.610415 4.389585 2.8137946 2.8137946 4.3930382 6.63111 4.389585 10.610415v3.422c-.6304943-.2768888-1.3113866-.4205571-2-.422v-3.043c.0383994-3.0836995-1.5100036-5.9709045-4.1-7.645-2.881223-1.8128273-6.5605673-1.7555826-9.384.146l-.095.063c-.2551018.1694133-.5868982.1694133-.842 0-2.6562356-1.8186433-6.1010123-2.0172544-8.9486624-.5159416-2.84765009 1.5013129-4.63009291 4.4557723-4.6303376 7.6749416v3.32c-.68874785.0011516-1.36976606.1451869-2 .423v-3.423c0-.5522847-.44771525-1-1-1s-1 .4477153-1 1v5.028c-1.08715332 1.4576647-1.3046074 3.3879996-.569 5.051zm9.526-24.13v.008zm8.043-2.949c-2.0355681.00329923-4.0540952.37110468-5.96 1.086 1.4081623-2.52256242 4.0710136-4.08574055 6.96-4.08574055s5.5518377 1.56317813 6.96 4.08574055c-1.905876-.71499966-3.9244221-1.08280856-5.96-1.086zm-15 52v-3c.00440864-3.8641657 3.13583434-6.9955914 7-7h3.023c.082 2.175.468 7.391 2.225 11h-5.248v-5c0-.5522847-.44771525-1-1-1s-1 .4477153-1 1v5h-4c-.55228475 0-1-.4477153-1-1zm12.333-6.4c2.4158683.5306691 4.9181317.5306691 7.334 0-.2229299 2.5913068-.9736559 5.1096078-2.206 7.4h-2.922c-1.2323441-2.2903922-1.9830701-4.8086932-2.206-7.4zm19.667 3.4v3c0 .5522847-.4477153 1-1 1h-4v-5c0-.5522847-.4477153-1-1-1s-1 .4477153-1 1v5h-5.248c1.757-3.609 2.143-8.825 2.225-11h3.023c3.8641657.0044086 6.9955914 3.1358343 7 7zm-12-7.758c-.007.372-.032 1.176-.113 2.232-2.5411956.7011043-5.2248044.7011043-7.766 0-.081-1.056-.106-1.86-.113-2.232.1891208-.3163374.3607129-.6428298.514-.978 2.2174975.9819115 4.7465025.9819115 6.964 0 .1532871.3351702.3248792.6616626.514.978zm-1-20.235v-.007c0-.5522847.4477153-1 1-1h8v4c0 1.1045695-.8954305 2-2 2h-5c-1.1045695 0-2-.8954305-2-2zm-13.042-9.05c2.2677149-2.3072285 5.87269-2.6327217 8.517-.769.9250959.6150655 2.1289041.6150655 3.054 0l.1-.065c2.1743857-1.461443 5.0058924-1.5037803 7.223-.108 2.000147 1.3086124 3.1887449 3.5521476 3.148 5.942v1.043h-8c-1.2667854.0052514-2.3937454.8056491-2.816 2h-2.368c-.4222546-1.1943509-1.5492146-1.9947486-2.816-2h-8v-1.32c-.00473101-1.7725381.69997859-3.4732757 1.957-4.723zm-1.958 9.043v-1h8c.5522847 0 1 .4477153 1 1v3c0 1.1045695-.8954305 2-2 2h-5c-1.1045695 0-2-.8954305-2-2zm2 7h5c2.209139 0 4-1.790861 4-4v-2h2v2c0 2.209139 1.790861 4 4 4h5c2.209139 0 4-1.790861 4-4v-2c.8603194.0014459 1.6786161.372174 2.247 1.018.7960904.9043242.9838964 2.1930887.479 3.287-.4647343 1.006759-1.4596028 1.6634188-2.568 1.695-1.1893207.0903858-2.1619494.98365-2.353 2.161-.5391882 3.1640127-2.9466506 5.6830819-6.083 6.365-.5828571.1352087-1.1144002.4355254-1.531.865-1.1210842 1.0823488-2.6336343 1.6630439-4.191 1.609-1.5579438.0529784-3.0705742-.5291912-4.191-1.613-.4161739-.4293055-.9474494-.7293199-1.53-.864-3.1348061-.6839961-5.54024063-3.2029954-6.079-6.366-.19564838-1.186906-1.18274821-2.0828762-2.383-2.163-1.09719182-.0374101-2.07919917-.6911785-2.537-1.689-.50562292-1.092679-.31897584-2.3807791.476-3.285.56732593-.6457857 1.38441289-1.0171889 2.244-1.02v2c0 1.060866.42142736 2.0782816 1.17157288 2.8284271.75014551.7501455 1.76756116 1.1715729 2.82842712 1.1715729z" fill="#428dff"/><path id="Shape" d="m2.516 20.034c-.55228474.0030376-1.00246242-.4422153-1.00549999-.9945-.00303756-.5522847.44221525-1.0024624.99449999-1.0055h.011c.55228475 0 1 .4477153 1 1s-.44771525 1-1 1z" fill="#428dff"/></g></g></svg>