<svg height="512" viewBox="0 0 60 60" width="512" xmlns="http://www.w3.org/2000/svg"><g id="Page-1" fill="none" fill-rule="evenodd"><g id="008---Rocking-Chair" fill-rule="nonzero" transform="translate(0 -1)"><path id="Shape" d="m57.88 51.9c-17.0177904 10.8000334-38.7422096 10.8000334-55.76 0-.59580356-.3750946-.99685793-.9928825-1.09696378-1.6897732-.10010584-.6968907.11083444-1.4025894.57696378-1.9302268.78973454-.907199 2.12323185-1.1025521 3.14-.46 7.5610095 4.7577115 16.3269226 7.2493685 25.26 7.18 8.9314591.0574467 17.6940961-2.433279 25.26-7.18 1.0179695-.636858 2.3474813-.4420888 3.14.46.4661293.5276374.6770696 1.2333361.5769638 1.9302268-.1001059.6968907-.5011602 1.3146786-1.0969638 1.6897732z" fill="#e8edfc"/><path id="Shape" d="m58.4 48.28c-.8611502-.971817-2.3261176-1.1148683-3.359-.328.6307213.4740836.9881279 1.2278953.955978 2.0162677-.03215.7883724-.4497488 1.5105793-1.116978 1.9317323-7.900255 5.0297281-17.0179394 7.8199884-26.38 8.073 10.3818162.3203719 20.619552-2.4927405 29.38-8.073.5958036-.3750946.9968579-.9928825 1.0969638-1.6897732.1001058-.6968907-.1108345-1.4025894-.5769638-1.9302268z" fill="#cad9fc"/><path id="Shape" d="m51.47 49.98c-1.19.61-2.42 1.16-3.67 1.65l-2.89-9.63h-.01l-1.2-4-1.5-5-.99-3.29c-.1303221-.4211235-.5191744-.7087122-.96-.71h-24.25c-.5522847 0-1 .4477153-1 1v22.66c-1.3580173-.4429657-2.6930197-.9536042-4-1.53v-24.69c.0025902-.2909376-.0624532-.5784981-.19-.84l-9.62-20.74c-.23874797-.5089454-.25227887-1.09487119-.03727924-1.61429507.21499963-.51942389.6386762-.92438101 1.16727924-1.11570493v-.01c.96902401-.35359876 2.04853097.08252205 2.5 1.01l1.23 2.52 8.4 17.23c.3388821.684631 1.0360902 1.1184493 1.8 1.12h25.49c1.3351095.0042901 2.5077361.8878317 2.88 2.17l1.96 6.83 1.44 5z" fill="#e8edfc"/><path id="Shape" d="m44.62 26.17c-.3722639-1.2821683-1.5448905-2.1657099-2.88-2.17h-3c1.3351095.0042901 2.5077361.8878317 2.88 2.17 2.484 8.656.952 3.33 6.85 23.81-.334.171-.678.327-1.018.489l.348 1.161c1.25-.49 2.48-1.04 3.67-1.65-5.991-20.802-4.397-15.263-6.85-23.81z" fill="#cad9fc"/><path id="Shape" d="m52.99 35.35c.010627.7060279-.2651548 1.3862579-.7644485 1.8855515-.4992936.4992937-1.1795236.7750755-1.8855515.7644485h-2.32l-1.44-5h3.92c1.320335.0029028 2.4107829 1.0320404 2.49 2.35z" fill="#a4c2f7"/><path id="Shape" d="m50.5 33h-3c1.320335.0029028 2.4107829 1.0320404 2.49 2.35.0290217 1.2208432-.8083107 2.29221-2 2.559l.03.091h2.32c.7060279.010627 1.3862579-.2651548 1.8855515-.7644485.4992937-.4992936.7750755-1.1795236.7644485-1.8855515-.0792171-1.3179596-1.169665-2.3470972-2.49-2.35z" fill="#7facfa"/><path id="Shape" d="m20.65 24h-4.4c-.7639098-.0015507-1.4611179-.435369-1.8-1.12l-8.4-17.23 4.12-1.37c.4740863-.15570668.9904044.06191503 1.21.51z" fill="#a4c2f7"/><path id="Shape" d="m44.9 42h-29.9v-4h28.7z" fill="#cad9fc"/><path id="Shape" d="m43.7 38h-21.7l-4.91-9h5.98l1.38 2.87c.336615.688027 1.0340538 1.1258636 1.8 1.13h15.95z" fill="#a4c2f7"/><path id="Shape" d="m42.2 33h-3l1.5 5h3z" fill="#7facfa"/><g fill="#fff"><path id="Shape" d="m4.96 47.952c-.073-.045-.148-.086-.22-.132-1.01676815-.6425521-2.35026546-.447199-3.14.46-.46612934.5276374-.67706962 1.2333361-.57696378 1.9302268.10010585.6968907.50116022 1.3146786 1.09696378 1.6897732 8.8106612 5.5909429 19.0994852 8.4020856 29.529 8.068-9.4108225-.2350142-18.580755-3.0237743-26.529-8.068-.59580356-.3750946-.99685793-.9928825-1.09696378-1.6897732-.10010584-.6968907.11083444-1.4025894.57696378-1.9302268.10895268-.1208751.22953347-.2307376.36-.328z"/><path id="Shape" d="m10.81 25.6c.282.565.193-1.309.19 24.093 1.306.683 3.329 1.584 3 1.437 0-26.932.1-24.955-.19-25.53l-9.62-20.74c-.339201-.7245218-.21156546-1.58172835.324-2.176-.54612141-.62071044-1.41623828-.84438679-2.194-.564v.01c-.52860304.19132392-.95227961.59628104-1.16727924 1.11570493-.21499963.51942388-.20146873 1.10534967.03727924 1.61429507z"/><path id="Rectangle-path" d="m8.13 17.972h2v8h-2z" transform="matrix(.907 -.421 .421 .907 -8.4 5.884)"/></g><path id="Shape" d="m9.149 22.972c-.55228475.0024853-1.00201472-.4432153-1.0045-.9955s.44321525-1.0020147.9955-1.0045h.009c.55228475 0 1 .4477153 1 1s-.44771525 1-1 1z" fill="#428dff"/><path id="Shape" d="m.285 5.284 6.254 13.48c.15040881.3242185.46236081.5435666.81834669.5754181.35598589.0318514.70192293-.1286329.9075-.421.20557708-.2923672.23956212-.6721996.08915331-.9964181l-6.254-13.482-.866.4.865-.4c-.12185823-.25578782-.12949042-.55126222-.021-.813.10721145-.25860453.31909729-.45958716.583-.553.03198959-.01135814.06336548-.0243758.094-.039.46801506-.12439785.95846067.10089667 1.169.537l9.63 19.745c.5062263 1.0269131 1.5500992 1.678801 2.695 1.683h25.488c.890739.0034733 1.6729525.5927788 1.922 1.448l6.614 23.005c-.605.292-1.218.568-1.837.833l-6.268-20.861c-.2504002-.8480154-1.0307961-1.4287278-1.915-1.425h-24.253c-1.1045695 0-2 .8954305-2 2v21.251c-.674-.243-1.339-.5-2-.779v-24.03c-.0006729-.4366412-.0962099-.8679227-.28-1.264-.2374331-.4929422-.8269446-.7035436-1.3229736-.4726288-.49602909.2309148-.71438277.817599-.4900264 1.3166288.06153407.1314489.0932897.2748616.093.42v23.139c-1.62670278-.7705477-3.20406251-1.6412182-4.723-2.607-1.43581708-.8930079-3.30664798-.6181966-4.425.65-.65847606.7466487-.95663418 1.744379-.81579145 2.7298933.14084272.9855142.70653459 1.8597892 1.54779145 2.3921067 17.3458677 11.0045477 39.4861323 11.0045477 56.832 0 .8417381-.5321266 1.4078732-1.4065262 1.5489206-2.392319.1410475-.9857928-.1571739-1.9838647-.8159206-2.730681-1.1175108-1.2697467-2.9895429-1.5447345-4.425-.65-.86.548-1.739 1.065-2.637 1.551l-2.738-9.524h.986c1.0269573-.0022632 2.0078765-.4263761 2.713-1.173.6532036-.6785233.9938751-1.5986988.94-2.539-.1085683-1.846711-1.6381005-3.2885406-3.488-3.288h-3.164l-1.755-6.1c-.4963425-1.7122255-2.0612994-2.8928642-3.844-2.9h-20.461l-9-18.649c-.4380821-.89840567-1.4736292-1.33366038-2.422-1.018l-3.289 1.093-.844-1.726c-.67179032-1.39200142-2.28894678-2.04863352-3.741-1.519-.05153161.01833506-.10138349.04108626-.149.068-.7508867.31783049-1.34005605.92761167-1.63188854 1.68897942-.29183248.76136775-.26118472 1.60872501.08488854 2.34702058zm15.715 33.716h26.956l.6 2h-27.556zm7.553-6.695c.5022273 1.0351361 1.5494745 1.6945139 2.7 1.7h15.2l.9 3h-19.761l-3.818-7h3.667zm17.3-.3h-14.6c-.3831102-.0015963-.7320579-.220658-.9-.565l-.692-1.44h15.591zm-24.353-2.005 3.818 7h-4.318v-7zm-.5 13h28.158l2.415 8.036c-5.3012995 1.9760118-10.9154263 2.9800709-16.573 2.964-4.7446565.0087699-9.4638024-.6940458-14-2.085zm39.8 5.659c.6036868-.3688702 1.3855353-.2475124 1.849.287.2734308.3045677.3969621.7151167.337 1.12-.057041.4102913-.2928504.7742579-.644.994-16.6908287 10.5867008-37.9931713 10.5867008-54.684 0-.35076893-.2199547-.58619073-.5838883-.643-.994-.05986064-.4053537.06404557-.8162971.338-1.121.27852471-.31599.67878584-.4979268 1.1-.5.26332312-.001004.52145225.0732429.744.214 7.7237554 4.8602588 16.677537 7.4076258 25.803 7.341 9.1243914.065661 18.0769453-2.4816528 25.8-7.341zm-5.3-14.659c.7951756-.0050172 1.4547437.6140975 1.5 1.408.0185622.3898154-.1264268.7696866-.4 1.048-.3285045.3481651-.7863216.5450446-1.265.544h-1.561l-.863-3zm-40.021-28.774 8.577 17.774h-2.807c-.3822124-.000846-.7309304-.2182136-.9-.561l-7.9-16.2z" fill="#428dff"/></g></g></svg>