<svg height="512" viewBox="0 0 38 60" width="512" xmlns="http://www.w3.org/2000/svg"><g id="Page-1" fill="none" fill-rule="evenodd"><g id="007---Nurse" fill-rule="nonzero" transform="translate(0 -1)"><path id="Shape" d="m32.02 29c0 1.6568542-1.3431458 3-3 3-.1882886.0003363-.3760566-.0197817-.56-.06-.6522214 1.6694685-1.7697753 3.1167355-3.22 4.17-1.0484988.8205652-2.1896289 1.515312-3.4 2.07-.8797163.4491309-1.8366178.7273789-2.82.82-.9975849-.0981181-1.9677987-.383076-2.86-.84-1.1962816-.5496458-2.3239824-1.2376775-3.36-2.05-1.4502247-1.0532645-2.5677786-2.5005315-3.22-4.17-.18394343.0402183-.37171144.0603363-.56.06-1.65685425 0-3-1.3431458-3-3s1.34314575-3 3-3v-3.94c3.41-.01 10-.61 10-5.06 0 4.45 6.59 5.05 10 5.06v3.94c1.6568542 0 3 1.3431458 3 3z" fill="#e8edfc"/><path id="Shape" d="m29.02 26v-3.94c-3.41-.01-10-.61-10-5.06.0125813 1.1910361-.5448703 2.3163451-1.5 3.028 2.147 1.72 6.1 2.025 8.5 2.032v3.94c1.1478055-.0137485 2.2028334.6286704 2.7174963 1.6547154.5146629 1.0260451.3987246 2.2558192-.298629 3.1676001s-1.8538549 1.3457054-2.9788673 1.1176845c-1.014 3.08-4.888 5.762-7.936 6.751 1.208.391 1.97.561 4.316-.511 2.631-1.183 5.717-3.5 6.62-6.24 1.1250124.2280209 2.2815137-.2059036 2.9788673-1.1176845s.8132919-2.141555.298629-3.1676001c-.5146629-1.026045-1.5696908-1.6684639-2.7174963-1.6547154z" fill="#cad9fc"/><path id="Shape" d="m35.3 41.19c-2.93.18-8.71-.13-10.06-5.08 1.4502247-1.0532645 2.5677786-2.5005315 3.22-4.17.1839434.0402183.3717114.0603363.56.06 1.6568542 0 3-1.3431458 3-3s-1.3431458-3-3-3v-3.94c-3.41-.01-10-.61-10-5.06 0 4.45-6.59 5.05-10 5.06v3.94c-1.65685425 0-3 1.3431458-3 3s1.34314575 3 3 3c.18828856.0003363.37605657-.0197817.56-.06.6522214 1.6694685 1.7697753 3.1167355 3.22 4.17-1.35 4.95-7.13 5.26-10.06 5.08-.33334131-.0287706-.630208-.2223423-.79098557-.5157613-.16077757-.2934191-.1641608-.6478036-.00901443-.9442387 2.08-4.24-2.1-11.33 2.08-20.73.96975441-2.2289457 2.57274571-4.1240221 4.61-5.45l1.24 4.03c2.9089308-1.1251494 6.0121343-1.662177 9.13-1.58 3.1178657-.082177 6.2210692.4548506 9.13 1.58l1.25-4.05c2.0491638 1.3293732 3.6626342 3.23146 4.64 5.47 4.18 9.4 0 16.49 2.08 20.73.1551464.2964351.1517631.6508196-.0090144.9442387-.1607776.293419-.4576443.4869907-.7909856.5157613z" fill="#a4c2f7"/><path id="Shape" d="m36.1 39.73c-2.08-4.24 2.1-11.33-2.08-20.73-.9773658-2.23854-2.5908362-4.1406268-4.64-5.47l-.622 2.015c.9371615 1.0207664 1.7012286 2.1878097 2.262 3.455 4.18 9.4 0 16.49 2.08 20.73.1373938.2643562.1497609.5762071.0337329.8506133s-.3483664.4827874-.6337329.5683867c.930911.0852597 1.8669917.0989666 2.8.041.3333413-.0287706.630208-.2223423.7909856-.5157613.1607775-.2934191.1641608-.6478036.0090144-.9442387z" fill="#7facfa"/><path id="Shape" d="m29.75 45.66-6.41 8.57c-.3376588.449008-.8537927.7290982-1.4142817.7674879-.5604889.0383896-1.1099921-.1687118-1.5057183-.5674879l-1.42-1.43 5-8h2c1.2791611-.0031054 2.5487648.2203448 3.75.66z" fill="#e8edfc"/><path id="Shape" d="m19 53-1.42 1.43c-.3957262.3987761-.9452294.6058775-1.5057183.5674879-.560489-.0383897-1.0766229-.3184799-1.4142817-.7674879l-6.41-8.57c1.20123522-.4396552 2.4708389-.6631054 3.75-.66h2z" fill="#e8edfc"/><path id="Shape" d="m24 45-5 8-5-8c1.9-1.73 2.31-4.71 2.16-6.84.8922013.456924 1.8624151.7418819 2.86.84.9833822-.0926211 1.9402837-.3708691 2.82-.82-.15 2.13.26 5.1 2.16 6.82z" fill="#cad9fc"/><path id="Shape" d="m37 56v3c0 .5522847-.4477153 1-1 1h-34c-.55228475 0-1-.4477153-1-1v-3c-.00191673-4.6295053 2.8970142-8.7639805 7.25-10.34l6.41 8.57c.3376588.449008.8537927.7290982 1.4142817.7674879.5604889.0383896 1.1099921-.1687118 1.5057183-.5674879l1.42-1.43 1.42 1.43c.3957262.3987761.9452294.6058775 1.5057183.5674879.560489-.0383897 1.0766229-.3184799 1.4142817-.7674879l6.41-8.57c4.3529858 1.5760195 7.2519167 5.7104947 7.25 10.34z" fill="#e8edfc"/><path id="Shape" d="m29.75 45.66-.811 1.084c3.155875 2.0196283 5.06391 5.5092098 5.061 9.256v3c0 .5522847-.4477153 1-1 1h3c.5522847 0 1-.4477153 1-1v-3c.0019167-4.6295053-2.8970142-8.7639805-7.25-10.34z" fill="#cad9fc"/><path id="Shape" d="m31.53 6.54-2.15 6.99-1.25 4.05c-2.9089308-1.1251494-6.0121343-1.662177-9.13-1.58-3.1178657-.082177-6.2210692.4548506-9.13 1.58l-1.24-4.03-2.16-7.01c-.29432101-.94162192.14906915-1.95630326 1.04-2.38 3.6274008-1.54683092 7.5485083-2.2839582 11.49-2.16 3.9414917-.1239582 7.8625992.61316908 11.49 2.16.8909309.42369674 1.334321 1.43837808 1.04 2.38z" fill="#e8edfc"/><path id="Shape" d="m30.49 4.16c-3.6274008-1.54683092-7.5485083-2.2839582-11.49-2.16-.523 0-1.01.021-1.5.04 3.4370808.04221936 6.8320032.76266336 9.99 2.12.8909309.42369674 1.334321 1.43837808 1.04 2.38l-2.15 6.99-.98 3.179c.9323092.2162945 1.845615.5075758 2.731.871l1.25-4.05 2.15-6.99c.294175-.94187866-.1496811-1.95665042-1.041-2.38z" fill="#cad9fc"/><path id="Shape" d="m2.74 41.19c.93300826.0579666 1.86908898.0442597 2.8-.041-.28536648-.0855993-.51770487-.2939805-.63373286-.5683867-.116028-.2744062-.10366089-.5862571.03373286-.8506133 2.08-4.24-2.1-11.33 2.08-20.73.96975441-2.2289457 2.57274571-4.1240221 4.61-5.45l-2.16-7.01c-.29432101-.94162192.14906915-1.95630326 1.04-2.38 3.1633645-1.34227269 6.5543135-2.06696499 9.99-2.135-4.686-.192-9.539.518-12.99 2.135-.89093085.42369674-1.33432101 1.43837808-1.04 2.38l2.16 7.01c-2.03725429 1.3259779-3.64024559 3.2210543-4.61 5.45-4.18 9.4 0 16.49-2.08 20.73-.15514637.2964351-.15176314.6508196.00901443.9442387.16077757.293419.45764426.4869907.79098557.5157613z" fill="#fff"/><path id="Shape" d="m2 60h3c-.55228475 0-1-.4477153-1-1v-3c-.00191673-4.6295053 2.8970142-8.7639805 7.25-10.34 1.8531703-.6026493 3.8084776-.8270846 5.75-.66 1.9-1.73 2.31-4.71 2.16-6.84-1.1962816-.5496458-2.3239824-1.2376775-3.36-2.05-.1465877.5401712-.3637948 1.0586439-.646 1.542.342.186.68.36 1.006.508.15 2.13-.26 5.11-2.16 6.84-1.9415224-.1670846-3.8968297.0573507-5.75.66-4.3529858 1.5760195-7.25191673 5.7104947-7.25 10.34v3c0 .5522847.44771525 1 1 1z" fill="#fff"/><path id="Shape" d="m3.133 26.8-2-.128c.17460481-2.7861371.84123115-5.519339 1.969-8.073l1.828.812c-1.03053053 2.3375943-1.6389255 4.839225-1.797 7.389z" fill="#fff"/><g fill="#428dff"><path id="Shape" d="m2.75 23.777c-.55228473.0027614-1.00223852-.4427153-1.00499994-.995-.00276143-.5522847.44271521-1.0022385.99499994-1.005h.01c.55228475 0 1 .4477153 1 1s-.44771525 1-1 1z"/><path id="Shape" d="m2 61h34c1.1045695 0 2-.8954305 2-2v-3c-.0071648-6.624447-5.375553-11.9928352-12-12h-1.59c-1.14441-1.4764369-1.7108258-3.3196886-1.593-5.184.6738353-.3346275 1.3261058-.7110273 1.953-1.127 1.432 2.929 4.717 4.539 9.308 4.539.4186667 0 .849-.0133333 1.291-.04.6580335-.0450381 1.2499242-.4162365 1.577-.989.336304-.5872081.356572-1.30372.054-1.909-.732-1.494-.545-3.534-.308-6.116.361-3.926.81-8.812-1.756-14.582-.9605371-2.1672471-2.476291-4.0424493-4.394-5.436l1.946-6.321c.4431674-1.41844412-.2272-2.94650612-1.571-3.581-3.7599513-1.6129566-7.8276978-2.38233652-11.917-2.254-4.0861838-.12823122-8.1508354.6404617-11.908 2.252-1.34666824.63243653-2.0202644 2.16147422-1.578 3.582l1.954 6.346c-1.90537302 1.3893327-3.41037458 3.2568731-4.363 5.414-.22422759.5050644.00343562 1.0962724.50850001 1.3205.5050644.2242276 1.09627237-.0034356 1.32049999-.5085.71470532-1.6239147 1.79639255-3.0598888 3.16-4.195l.565 1.835c-.095.051-.158.087-.174.1-.30671251.1832772-.49234931.5162616-.48698281.873521.0053665.3572595.20092099.6845178.513.8585s.6932703.1682562.99998281-.015021c.03-.018 2.9-1.665 8.51-1.842.0128113.7899651-.3225633 1.5455636-.917 2.066-2.246 2.07-7.983 2.088-10 1.923-.53023108-.0140034-.97915225.3884184-1.02298106.9170204-.04382882.5286021.33268437.9994644.85798106 1.0729796.069.006.47.037 1.083.055v2.075c-1.9295169.5016765-3.19503125 2.3476359-2.96727296 4.3282522s1.87924674 3.4911388 3.87227296 3.5417478c.64946647 1.3214777 1.569336 2.4917562 2.7 3.435-1.439 3.628-6.1 3.922-8.8 3.771 0 0 0-.013 0-.031l-.872-.436.875.429c.50143531-1.1390273.74458225-2.3749104.712-3.619-.00596202-1.1258615-.06971256-2.2506748-.191-3.37-.25055818-2.1188497-.32614711-4.2547389-.226-6.386.02595432-.5422647-.37858122-1.0093073-.919-1.061-.26795668-.0254544-.53465786.0598551-.73809877.236095s-.32589791.4280563-.33890123.696905c-.10699802 2.2335324-.03007193 4.4720817.23 6.693.11477629 1.0522057.1758555 2.109577.183 3.168.03260354.9465854-.14072288 1.8889625-.508 2.762-.30259245.6053314-.28346484 1.3216791.051 1.91.32912517.5743842.92437281.9454282 1.585.988.44.0273333.86933333.041 1.288.041 4.587 0 7.873-1.612 9.3-4.543.6133607.4083793 1.2516002.7780974 1.911 1.107.1228782 1.8705342-.4386869 3.7219218-1.58 5.209h-1.589c-6.62444695.0071648-11.99283515 5.375553-12 12v3c0 .530433.21071368 1.0391408.58578644 1.4142136.37507276.3750727.88378058.5857864 1.41421356.5857864zm26.081-14.779-5.539 7.406c-.1626319.2177822-.4119829.354015-.6831093.3732166s-.5371887-.0805289-.7288907-.2732166l-.862-.869 4.286-6.858h1.446c.699494.0005496 1.3969927.0746232 2.081.221zm5.024-26.815c2.355 5.294 1.932 9.894 1.595 13.585-.256 2.78-.476 5.182.54 7.2-2.736.167-7.387-.127-8.826-3.751 1.1323629-.9445827 2.0536007-2.1165715 2.704-3.44 1.9949968-.0494197 3.6483744-1.5617232 3.8750542-3.5444161.2266798-1.9826928-1.0426928-3.8291522-2.9750542-4.3275839v-2.073c.614-.018 1.015-.049 1.083-.055.3586714-.0262881.6756034-.2431472.8300246-.56794s.1225457-.7074906-.0834799-1.0022613c-.2060255-.2947706-.5544665-.4562097-.9125447-.4227987-2.014.164-7.751.146-10-1.923-.5917145-.5217516-.9256419-1.2761937-.914-2.065 2.6383268.0279558 5.2500378.5309896 7.71 1.485h.01c.2537021.1041456.5017155.2216433.743.352.4741365.2833221 1.0881779.1286365 1.3715-.3455s.1286365-1.0881779-.3455-1.3715c-.016-.01-.079-.046-.174-.1l.573-1.861c1.3786851 1.1425222 2.4728276 2.5899672 3.196 4.228zm-25.68-13.161c-.14369649-.46471499.07223659-.9648822.509-1.179 3.4955841-1.48172339 7.2712589-2.18663429 11.066-2.066 3.7968564-.12033306 7.574562.58525718 11.072 2.068.4331342.21679015.6449553.71584078.5 1.178l-3.085 10.022c-2.739969-.8867289-5.6075045-1.3151529-8.487-1.268-2.8794955-.0471529-5.747031.3812711-8.487 1.268zm3.106 25.384c-.1612867-.4876036-.66571932-.7737514-1.167-.662-.11233274.0245186-.2270241.0365914-.342.036-1.1045695 0-2-.8954305-2-2s.8954305-2 2-2c.55228475 0 1-.4477153 1-1v-2.958c2.662-.1 6.386-.6 8.436-2.487.2051379-.1940035.393788-.4047295.564-.63.1708531.2250438.3598156.4357454.565.63 2.05 1.886 5.774 2.387 8.435 2.487v2.955c0 .5522847.4477153 1 1 1 1.1045695 0 2 .8954305 2 2s-.8954305 2-2 2c-.1146426.0005342-.2289963-.0115383-.341-.036-.5012807-.1117514-1.0057133.1743964-1.167.662-1.235 3.732-6.95 6.374-8.492 6.374s-7.256-2.642-8.491-6.371zm8.491 8.371c.6189746-.0334403 1.2297501-.1570777 1.813-.367.0368448 1.9855748.7051436 3.9078097 1.908 5.488l-3.743 5.992-3.744-5.99c1.2032658-1.5846203 1.8717758-3.5106573 1.909-5.5.5970289.2165294 1.222799.3435705 1.857.377zm-5.576 6 4.286 6.857-.859.866c-.1905966.1935779-.4559613.2946899-.7270471.2770271-.2710857-.0176628-.5210865-.1523539-.6849529-.3690271l-5.542-7.41c.6840073-.1463768 1.381506-.2204504 2.081-.221zm-11.446 10c.00581278-3.9384342 2.32098958-7.50729 5.915-9.118l5.947 7.951c.5128833.6799428 1.2957487 1.103665 2.1454881 1.1612354.8497395.0575705 1.6826033-.256685 2.2825119-.8612354l.71-.716.713.718c.5514842.5529286 1.3000621.8640866 2.081.865.067 0 .135 0 .2-.007.8502458-.059256 1.6328935-.4846953 2.145-1.166l5.944-7.947c3.5954523 1.6104116 5.9116203 5.1803713 5.917 9.12v3h-34z"/><path id="Shape" d="m20 12v-2h2c.5522847 0 1-.44771525 1-1s-.4477153-1-1-1h-2v-2c0-.55228475-.4477153-1-1-1s-1 .44771525-1 1v2h-2c-.5522847 0-1 .44771525-1 1s.4477153 1 1 1h2v2c0 .5522847.4477153 1 1 1s1-.4477153 1-1z"/><path id="Shape" d="m33 53h-1v-1c0-.5522847-.4477153-1-1-1s-1 .4477153-1 1v1h-1c-.5522847 0-1 .4477153-1 1s.4477153 1 1 1h1v1c0 .5522847.4477153 1 1 1s1-.4477153 1-1v-1h1c.5522847 0 1-.4477153 1-1s-.4477153-1-1-1z"/></g></g></g></svg>