<svg height="512" viewBox="0 0 40 60" width="512" xmlns="http://www.w3.org/2000/svg"><g id="Page-1" fill="none" fill-rule="evenodd"><g id="034---Elderly-Man-Walking" fill-rule="nonzero"><path id="Shape" d="m23.49 14.84-1.95 3.24c-.421318-.2816791-.8934267-.4786741-1.39-.58l-2.84-.59 2.56-4.06c.3608648.3917115.7959527.70783 1.28.93z" fill="#a4c2f7"/><path id="Shape" d="m29.94 30.49v.01c-.270607 1.0387681-1.3096824 1.681586-2.36 1.46l-6.21-1.12-6.81-1.23c-.3899332-.0858716-.7598883-.2453935-1.09-.47-.9948769-.6836629-1.480259-1.8990913-1.23-3.08l1.5-7.18c.3101326-1.4278042 1.7067847-2.3440792 3.14-2.06l.43.09 2.84.59c.4965733.1013259.968682.2983209 1.39.58 1.3673563.9015657 2.0452966 2.5468593 1.71 4.15l-.99 4.76 6.16 1.05c.5319898.1136935.994713.4391882 1.2815061.9014534.2867931.4622651.3729079 1.0214107.2384939 1.5485466z" fill="#e8edfc"/><path id="Shape" d="m28.42 28.04-6.16-1.05.99-4.76c.4494846-2.1620757-.9381648-4.2793601-3.1-4.73-3.275-.68-2.7-.561-3.27-.68-.5955426-.1174539-1.2133753-.0256091-1.749.26l2.019.42c2.1618352.4506399 3.5494846 2.5679243 3.1 4.73l-.99 4.76 6.16 1.05c.5319898.1136935.994713.4391882 1.2815061.9014534.2867931.4622651.3729079 1.0214107.2384939 1.5485466v.01c-.1278713.4919059-.4382256.9166765-.868 1.188l1.508.272c1.0503176.221586 2.089393-.4212319 2.36-1.46v-.01c.134414-.5271359.0482992-1.0862815-.2384939-1.5485466-.2867931-.4622652-.7495163-.7877599-1.2815061-.9014534z" fill="#cad9fc"/><path id="Shape" d="m21.37 30.84-1.37 6.16h-8l1.47-7.86c.3301117.2246065.7000668.3841284 1.09.47z" fill="#e8edfc"/><path id="Shape" d="m19 53.45v-.01l-1.72-6.05-1.02-3.59c-.1678083-.5143117-.5353804-.9395421-1.02-1.18l-1.54-.77-.04-.02c-1.015933-.507189-1.6584471-1.5445009-1.66-2.68v-2.15h8l3 16.01z" fill="#e8edfc"/><path id="Shape" d="m25.3 58.34-3.2.62c-.5226627.1025337-1.0646346-.0076482-1.5057735-.3061209s-.7450007-.7605783-.8442265-1.2838791l-.75-3.92 4-.44c.2940916 1.0120129 1.1559573 1.7563515 2.2 1.9.7418026.0949776 1.3387305.6556059 1.48 1.39v.01c.1781488.9413666-.4391082 1.8493605-1.38 2.03z" fill="#a4c2f7"/><path id="Shape" d="m15.49 57.94v.01c-.3829654.8817088-1.406307 1.2883641-2.29.91l-2.99-1.3c-.4884337-.2090069-.8736386-.6037607-1.07062507-1.0971649s-.18956568-1.0449097.02062507-1.5328351l1.59-3.67 3.67 1.59h.01l-.04.08c-.455283 1.0467604-.1893953 2.2674269.66 3.03.5598985.4951172.7375055 1.2943486.44 1.98z" fill="#a4c2f7"/><path id="Shape" d="m17.28 47.39-2.85 5.46h-.01l-3.67-1.59 2.95-9.41 1.54.77c.4846196.2404579.8521917.6656883 1.02 1.18z" fill="#7facfa"/><path id="Shape" d="m29.56 12.12-.88-.4-.83 1.82c-.6892438 1.5032027-2.464938 2.1651743-3.97 1.48-2.265-1.045-3.207-1.3-4.01-2.17-1.1010036-1.1819002-1.3812615-2.91081486-.71-4.38l.82-1.81c2.626 1.193 2.935 1.42 3.57 1.42.93936-.00430718 1.7491308-.66177391 1.9462845-1.58022165s-.271448-1.85032951-1.1262845-2.23977835l-2.64-1.2c1.4470432-2.01400566 4.1516734-2.66300424 6.3550787-1.52495417s3.2396728 3.7192074 2.4349213 6.06495417c-.22.705-.1.834.45 3.37.0876944.3766266-.0466832.770323-.3463519 1.0147337-.2996688.2444107-.712343.2968913-1.0636481.1352663z" fill="#e8edfc"/><path id="Shape" d="m30.97 10.97c-.545-2.507-.672-2.66-.45-3.37.6035704-1.78347498.1521023-3.75483152-1.1674845-5.09787679-1.3195869-1.34304527-3.282683-1.82917669-5.0765155-1.25712321 1.2856131.39420839 2.3564594 1.2928262 2.96783 2.49050196.6113706 1.19767575.7110177 2.59205602.27617 3.86449804-.22.705-.1.834.45 3.37.0876944.3766266-.0466832.770323-.3463519 1.0147337-.2996688.2444107-.712343.2968913-1.0636481.1352663l-.88-.4c-.77 1.688-.993 2.554-2.079 3.171l.279.129c1.505062.6851743 3.2807562.0232027 3.97-1.48l.83-1.82.88.4c.3513051.161625.7639793.1091444 1.0636481-.1352663.2996687-.2444107.4340463-.6381071.3463519-1.0147337z" fill="#cad9fc"/><path id="Shape" d="m25.36 6.91c-.3178005.71453782-1.0279844 1.17360695-1.81 1.17-.2894685-.00095304-.5755577-.06225786-.84-.18l-2.73-1.24c-.8565155-.39023982-1.325027-1.32488171-1.1251827-2.24464703.1998443-.91976533 1.013957-1.57572185 1.9551827-1.57535297.2862439.00098716.5690627.06232138.83.18l.09.04 2.64 1.2c.483863.21880851.8604582.62158571 1.0463005 1.11904245.1858423.49745673.1655781 1.04849463-.0563005 1.53095755z" fill="#a4c2f7"/><path id="Shape" d="m9.16 54.93c-.21019075.4879254-.21761154 1.0394309-.02062507 1.5328351s.58219137.888158 1.07062507 1.0971649l2.99 1.3c.6870401.2920745 1.4838107.1138971 1.981-.443l-1.971-.857c-.4884337-.2090069-.8736386-.6037607-1.0706251-1.0971649-.1969864-.4934042-.1895657-1.0449097.0206251-1.5328351l1.59-3.67c3.114-9.934 3.01-9.38 2.91-9.43-1.015933-.507189-1.6584471-1.5445009-1.66-2.68 0-2.867-.24-.868 1.47-10.01-.9948769-.6836629-1.480259-1.8990913-1.23-3.08l1.5-7.18c.1759438-.775578.6848665-1.4341408 1.391-1.8.6751229-.343125 1.4588304-.4042679 2.179-.17l2.56-4.06c-1.1010036-1.1819002-1.3812615-2.91081486-.71-4.38l.82-1.81c-.6502234-.29653044-1.0928574-.91742591-1.1611662-1.62880109-.0683088-.71137517.2480854-1.40515526.83-1.82.5819145-.41484474 1.3409428-.48772935 1.9911662-.19119891l.09.04c.6336943-.86576459 1.5319231-1.50179064 2.559-1.812-2.0498486-.65168618-4.2869436.07751262-5.559 1.812l-.09-.04c-1.0051582-.45839634-2.1916037-.01515824-2.65.99s-.0151582 2.19160366.99 2.65l-.82 1.81c-.6712615 1.46918514-.3910036 3.1980998.71 4.38l-2.56 4.06c-.7201696-.2342679-1.5038771-.173125-2.179.17-.7061335.3658592-1.2150562 1.024422-1.391 1.8l-1.5 7.18c-.250259 1.1809087.2351231 2.3963371 1.23 3.08-1.71 9.142-1.47 7.143-1.47 10.01.0015529 1.1354991.644067 2.172811 1.66 2.68.1.05.2-.5-2.91 9.43z" fill="#fff"/><path id="Shape" d="m13.176 26.708-2 .025c.0040175-.4070291.0560438-.8121627.155-1.207l.2-.979.409-1.957.818-3.915 1.958.409-.816 3.916-.409 1.958c-.1439933.5756377-.2492293 1.1602822-.315 1.75z" fill="#fff"/><g fill="#428dff"><path id="Shape" d="m12.943 23.8c-.5522847.0027614-1.0022385-.4427153-1.0049999-.995-.0027615-.5522847.4427152-1.0022385.9949999-1.005h.01c.5522847 0 1 .4477153 1 1s-.4477153 1-1 1z"/><path id="Shape" d="m0 59c0 .5522847.44771525 1 1 1h38c.5522847 0 1-.4477153 1-1s-.4477153-1-1-1h-7v-23c-.0032033-1.2605603-.6029399-2.4451978-1.617-3.194.2428142-.314327.4202964-.6740514.522-1.058.007-.025.012-.051.017-.077.1834485-.7908759.0385214-1.6223356-.4016856-2.3045057-.4402069-.68217-1.1381026-1.156797-1.9343144-1.3154943l-5.135-.876.778-3.741c.354064-1.6626081-.1695839-3.3906084-1.387-4.577l1.069-1.777c.3884409.1334245.7953553.2052924 1.206.213 1.565935-.0028393 2.987482-.9154085 3.642-2.338l.416-.912c.6951156.3049276 1.5026762.1926991 2.0883035-.2902162s.8496305-1.2543113.6826965-1.9947838l-.519-2.386c-.0250662-.15122359-.0116539-.30632427.039-.451.9053721-2.67260293-.1766212-5.61471103-2.5978374-7.0639237s-5.5254414-1.01275484-7.4531626 1.0479237c-1.3069852-.27930084-2.6403358.34420258-3.2639441 1.52629049-.6236084 1.18208791-.3854705 2.63462729.5829441 3.55570951l-.483 1.067c-.7363925 1.57385391-.5841965 3.4199918.4 4.852l-1.833 2.908c-1.8916793-.2505432-3.6584268.9943195-4.059 2.86-.08048.3523719.0354534.7207484.3032329.9635181s.6457234.3221437.9885423.2076091c.3428189-.1145347.5971506-.4051499.6652248-.7601272.1996785-.8874216 1.0676434-1.4561798 1.961-1.285l3.271.68c1.6207324.338455 2.6608508 1.9259334 2.324 3.547l-.793 3.812-2.959-.505.61-2.94c.1006499-.5356176-.246122-1.0531999-.7797629-1.1638528-.5336409-.1106528-1.0576201.2263754-1.1782371.7578528l-.611 2.943c-.1081718.5256342-.0005652 1.0726886.2986315 1.5181926s.7648792.7520777 1.2923685.8508074l3.882.663c.008 0 .014.008.023.01.0294979.0044833.0592017.007487.089.009l6.061 1.036c.2665857.0563637.4986276.21907.6424638.4504915s.1870097.5115159.1195362.7755085c0 .015-.007.031-.01.047-.1600753.5063996-.6825555.8046487-1.2.685l-12.979-2.342c-.2657215-.0575171-.5179447-.1654673-.743-.318-.5278043-.3673171-.847883-.9650948-.861-1.608-.0180516-.2015238-.1004419-.3918979-.235-.543-.3014441-.4622863-.9204054-.5929708-1.383-.292-.2550823.2109527-.3964907.5293067-.382.86.018973 1.0528053.4523128 2.055667 1.206 2.791l-1.364 7.292c0 .029.006.056 0 .085-.0080063.0326035-.0140175.0656649-.018.099v2.146c-.0013528 1.220155.5588689 2.3730536 1.519 3.126l-2.707 8.638-1.573 3.63c-.5056637 1.2118478-.16826123 2.6116231.834 3.46h-8.073c-.55228475 0-1 .4477153-1 1zm27.439-56.642c1.8778855.85179292 2.7989523 2.99286162 2.126 4.942-.1593434.48028774-.1910476.99375791-.092 1.49l.5 2.418-.88-.4c-.5020507-.227953-1.0938813-.0065198-1.323.495l-.83 1.817c-.2209859.4829933-.6250209.8582458-1.123 1.043-.4951193.1875431-1.0449693.1673519-1.525-.056l-2.728-1.237c-.7273224-.3300137-1.2934732-.9358239-1.5735627-1.6837923s-.2511039-1.5766376.0805627-2.3032077l.408-.9 1.82.829c1.5077374.68704223 3.2869578.02173737 3.974-1.486s.0217374-3.28695777-1.486-3.974l-1.326-.6c1.163054-.82548131 2.6756125-.97529228 3.978-.394zm-7.539 2.065c.1091141-.24201389.3099828-.43070835.5583376-.52449794.2483549-.09378959.5238111-.08497616.7656624.02449794l2.731 1.243c.3251117.14826521.5464287.45871295.5805831.81440055.0341544.35568759-.1240427.70257764-.415.91000001s-.6704714.24386467-.9955831.09559944l-2.725-1.238c-.2422682-.10910844-.4311537-.31014766-.5249624-.55874061-.0938086-.24859295-.084827-.52429904.0249624-.76625939zm-.977 11.8 1.192-1.891c.1973809.1336286.4038871.2532551.618.358l1.317.6-.892 1.483c-.2616018-.1058233-.5315261-.1897775-.807-.251zm-5.9230073 21.777h6.1700073l2.652 14.133-2.091.228-2.521-8.861c-.2469733-.7715842-.7940746-1.4113107-1.518-1.775l-1.586-.792c-.6791164-.3361939-1.108044-1.0292262-1.106-1.787zm12.5820073 19.051c-.1101341.1628004-.2808111.2747847-.474.311l-3.2.614c-.2604433.0501321-.5301343-.0052529-.7497409-.1539702-.2196066-.1487174-.3711387-.3785843-.4212591-.6390298l-.551-2.86 2.2-.24c.5602883.9906954 1.5520417 1.6619792 2.68 1.814.2548248.0349068.4736207.1987876.5787792.4335127s.0818041.5070909-.0617792.7204873zm-10.782-13.536c.2343146.114486.4139921.3168029.5.563l.913 3.2-2.232 4.284-2-.868 2.319-7.426zm.92 11.7c-.3480726-.3116669-.5469934-.756784-.547-1.224-.0029081-.2049923.0334108-.4086497.107-.6l1.728-3.314 1.014 3.555.753 3.928c.0310541.1494762.0728287.296523.125.44h-2.379c.2923054-1.0063123-.0206097-2.0910068-.804-2.787zm11.611 2.785c.4633352-.7891149.4999934-1.7580161.0976094-2.5798853-.4023839-.8218692-1.1901617-1.3871298-2.0976094-1.5051147-.6204136-.0762749-1.1429471-.4998144-1.346-1.091l-2.963-15.807 1.117-5.025 2.772.5c-.5845152.7055208-.9064502 1.5918139-.911 2.508 0 .5522847.4477153 1 1 1s1-.4477153 1-1c0-1.1045695.8954305-2 2-2s2 .8954305 2 2v23zm-7.162-26.363-.969 4.363h-5.995l1.02-5.456c.056.014.1.038.159.05zm-6.57 26.3-2.993-1.3c-.2445052-.1039443-.437596-.300915-.5366561-.5474396-.09906008-.2465245-.09594558-.5223357.0086561-.7665604l1.193-2.754 1.957.848c-.0340096.1878827-.053401.3781194-.058.569.0007409 1.0366247.4421078 2.0240652 1.214 2.716.2372773.2053302.3145101.5405451.191.829-.009.022-.017.043-.025.065-.1316101.24656-.3885131.4003942-.668.4h-.007c-.0944065.0000796-.1878862-.0186164-.275-.055z"/></g></g></g></svg>