<svg height="512" viewBox="0 0 60 60" width="512" xmlns="http://www.w3.org/2000/svg"><g id="Page-1" fill="none" fill-rule="evenodd"><g id="025---Old-Persons-Home" fill-rule="nonzero" transform="translate(-1)"><path id="Shape" d="m59 15.47v41.53c-.0032948 1.1032019-.8967981 1.9967052-2 2h-52c-1.10320187-.0032948-1.9967052-.8967981-2-2v-41.53l26.62-14.13c.8649694-.45001414 1.8950306-.45001414 2.76 0z" fill="#e8edfc"/><path id="Shape" d="m32.38 1.34c-.8649694-.45001414-1.8950306-.45001414-2.76 0l-.12.06 26.5 14.07v41.53c-.0032948 1.1032019-.8967981 1.9967052-2 2h3c1.1032019-.0032948 1.9967052-.8967981 2-2v-41.53z" fill="#cad9fc"/><path id="Shape" d="m12 26v3h-2.5c-.54062307.0018538-1.06638925.1771092-1.5.5v-3.5c.0032948-1.1032019.89679813-1.9967052 2-2 .2879718-.0048259.5728056.060377.83.19.2181454.0931905.4153722.2292089.58.4.3798589.3704612.5928231.8794095.59 1.41z" fill="#a4c2f7"/><path id="Shape" d="m28.93 32.1c-.3203085 1.1472577-1.3792482 1.9301314-2.57 1.9-.0955594-.0002666-.1872818.0375763-.2548527.1051473-.067571.0675709-.1054139.1592933-.1051473.2548527v.64c.0041332 2.1643906-1.7164872 3.938226-3.88 4-.3859442.0006007-.7505012.1773556-.99.48-.7538676.961733-1.9080152 1.5235068-3.13 1.5235068s-2.3761324-.5617738-3.13-1.5235068c-.2394988-.3026444-.6040558-.4793993-.99-.48-2.1635128-.061774-3.88413319-1.8356094-3.88-4v-.64c.0002666-.0955594-.0375763-.1872818-.10514727-.2548527-.06757096-.067571-.15929333-.1054139-.25485273-.1051473-1.19075176.0301314-2.24969154-.7527423-2.57-1.9-.18090152-.746361-.01002212-1.5344659.46375801-2.1388768s1.19827487-.9585528 1.96624199-.9611232h2.5v1c0 1.6568542 1.3431458 2.9999999 3 2.9999999s3-1.3431457 3-2.9999999c0 1.6568542 1.3431458 3 3 3s3-1.3431458 3-3v-1h2.5c.7679671.0025704 1.4924619.3567123 1.966242.9611232s.6446595 1.3925158.463758 2.1388768z" fill="#e8edfc"/><path id="Shape" d="m28 29.5c-.831-.613-1.269-.5-4-.5v.057c1.2757082.2694114 2.1301535 1.4740069 1.9627342 2.7670594s-1.3004784 2.2403138-2.6027342 2.1759406c-.0955594-.0002666-.1872818.0375763-.2548527.1051473-.067571.0675709-.1054139.1592933-.1051473.2548527v.64c.0037497 2.1757659-1.7347121 3.9542434-3.91 4-1.05.028-.929 1.019-2.59 1.694 1.6402447.6895082 3.5391046.1916214 4.63-1.214.2394988-.3026444.6040558-.4793993.99-.48 2.1635128-.061774 3.8841332-1.8356094 3.88-4v-.64c-.0002666-.0955594.0375763-.1872818.1051473-.2548527.0675709-.067571.1592933-.1054139.2548527-.1051473 1.1024009.0643489 2.1164349-.6021949 2.4945544-1.639718.3781195-1.037523.030744-2.200225-.8545544-2.860282z" fill="#cad9fc"/><path id="Shape" d="m28 26v3.5c-.4336107-.3228908-.9593769-.4981462-1.5-.5h-2.5v-3c-.0028231-.5305905.2101411-1.0395388.59-1.41.3773516-.3695988.8818795-.5807133 1.41-.59 1.1032019.0032948 1.9967052.8967981 2 2z" fill="#a4c2f7"/><path id="Shape" d="m18 29v1c0 1.6568542-1.3431458 2.9999999-3 2.9999999s-3-1.3431457-3-2.9999999v-1z" fill="#e8edfc"/><path id="Shape" d="m25.17 24.19c-.2181454.0931905-.4153722.2292089-.58.4-.3798589.3704612-.5928231.8794095-.59 1.41v3h-12v-3c.0028231-.5305905-.2101411-1.0395388-.59-1.41-.1646278-.1707911-.3618546-.3068095-.58-.4.97-1.43 3.01-3.19 7.17-3.19s6.2 1.76 7.17 3.19z" fill="#e8edfc"/><path id="Shape" d="m18 21c-.501219-.0005535-1.0020521.0278271-1.5.085 2.2619456.1255506 4.3459413 1.2667863 5.67 3.105-.2181454.0931905-.4153722.2292089-.58.4-.3798589.3704612-.5928231.8794095-.59 1.41v3h3v-3c-.0028231-.5305905.2101411-1.0395388.59-1.41.1646278-.1707911.3618546-.3068095.58-.4-.97-1.43-3.01-3.19-7.17-3.19z" fill="#cad9fc"/><path id="Shape" d="m24 29v1c0 1.6568542-1.3431458 3-3 3s-3-1.3431458-3-3v-1z" fill="#e8edfc"/><path id="Shape" d="m55 36.5c.0014245.2021174-.0220863.4036388-.07.6-.3203085 1.1472577-1.3792482 1.9301314-2.57 1.9h-.01c-.1943464.0014817-.3530454.1557724-.36.35-.1479815 2.098114-1.5959308 3.8780517-3.62 4.45-.3590975.1203378-.6753294.3427427-.91.64-.1371524.1747578-.291234.3355386-.46.48-1.7408476 1.4398677-4.2591524 1.4398677-6 0-.168766-.1444614-.3228476-.3052422-.46-.48-.2346706-.2972573-.5509025-.5196622-.91-.64-2.0240692-.5719483-3.4720185-2.351886-3.62-4.45-.0069546-.1942276-.1656536-.3485183-.36-.35h-.01c-1.1907518.0301314-2.2496915-.7527423-2.57-1.9-.0479137-.1963612-.0714245-.3978826-.07-.6 0-1.3807119 1.1192881-2.5 2.5-2.5h1.5v-.5c0 1.9329966 1.5670034 3.5 3.5 3.5s3.5-1.5670034 3.5-3.5c0 1.9329966 1.5670034 3.5 3.5 3.5s3.5-1.5670034 3.5-3.5v.5h1.5c1.3807119 0 2.5 1.1192881 2.5 2.5z" fill="#e8edfc"/><path id="Shape" d="m52.5 34h-1.5c0-1.021.049-.268-.135.409.9492548.6181478 1.364251 1.7973099 1.0113846 2.8737283-.3528664 1.0764185-1.3854015 1.7810577-2.5163846 1.7172717-.1980088-.0034098-.3624125.1521072-.37.35-.1479815 2.098114-1.5959308 3.8780517-3.62 4.45-1.045.319-.992 1.349-2.87 1.957 1.5426982.5333826 3.2522582.2154044 4.5-.837.482-.406.667-.905 1.37-1.12 2.0240692-.5719483 3.4720185-2.351886 3.62-4.45.0065285-.1983713.1715722-.3544937.37-.35 1.1907518.0301314 2.2496915-.7527423 2.57-1.9.1821332-.7464905.0117328-1.5352772-.4623045-2.1400162-.4740373-.6047389-1.1993085-.9585785-1.9676955-.9599838z" fill="#cad9fc"/><path id="Shape" d="m55 31 .0000004 5.5c-.0000004-1.3807119-1.1192885-2.5-2.5000004-2.5h-1.5v-3.46c.0013555-1.4317332-.8607912-2.7229846-2.183684-3.2705395-1.3228927-.547555-2.8454163-.243336-3.856316.7705395-.2538667.256-.5994667.4-.96.4s-.7061333-.144-.96-.4c-1.0123197-1.0097748-2.5327089-1.3114111-3.8538498-.7645812-1.321141.5468299-2.183603 1.8347456-2.1861502 3.2645812v3.46h-1.5c-1.3807119 0-2.5 1.1192881-2.5000004 2.5l.0000004-5.5c-.0011459-3.8247364 2.4183273-7.2312584 6.03-8.49.9536444-.338233 1.9581509-.510724 2.97-.51h4c1.0118491-.000724 2.0163556.171767 2.97.51 3.6116727 1.2587416 6.0311459 4.6652636 6.03 8.49z" fill="#a4c2f7"/><path id="Shape" d="m48.97 22.51c-.9536444-.338233-1.9581509-.510724-2.97-.51l-3-.0000023c1.0118491-.0007217 2.0163556.1717693 2.97.5100023 3.6116727 1.2587416 6.0311459 4.6652636 6.03 8.49v3h.5c1.3807119 0 2.5 1.1192881 2.5000004 2.5l-.0000004-5.5c.0011459-3.8247364-2.4183273-7.2312584-6.03-8.49z" fill="#7facfa"/><path id="Shape" d="m48.97 22.51c-.9536444-.338233-1.9581509-.510724-2.97-.51h-4c-1.0118491-.000724-2.0163556.171767-2.97.51.246599-2.5602878 2.3978638-4.5143049 4.97-4.5143049s4.723401 1.9540171 4.97 4.5143049z" fill="#a4c2f7"/><path id="Shape" d="m44 33v.5c0 1.9329966-1.5670034 3.5-3.5 3.5s-3.5-1.5670034-3.5-3.5v-.5z" fill="#e8edfc"/><path id="Shape" d="m51 30.54.0000016 2.46h-14.0000032l.0000016-2.46c-.0013555-1.4317332.8607912-2.7229846 2.183684-3.2705395 1.3228927-.547555 2.8454163-.243336 3.856316.7705395.2538667.256.5994667.4.96.4s.7061333-.144.96-.4c1.0108997-1.0138755 2.5334233-1.3180945 3.856316-.7705395 1.3228928.5475549 2.1850395 1.8388063 2.183684 3.2705395z" fill="#e8edfc"/><path id="Shape" d="m47.46 27c-.5170503.0041811-1.0268185.122319-1.493.346 1.2402775.5796974 2.032879 1.8249356 2.033 3.194v2.46h3.0000051l-.0000051-2.46c.0015962-.9393548-.3708544-1.8406954-1.0350795-2.5049205s-1.5655657-1.0366757-2.5049205-1.0350795z" fill="#cad9fc"/><path id="Shape" d="m51 33v.5c0 1.9329966-1.5670034 3.5-3.5 3.5s-3.5-1.5670034-3.5-3.5v-.5z" fill="#e8edfc"/><path id="Shape" d="m21 39.63v2.37c0 1.6568542-1.3431458 3-3 3s-3-1.3431458-3-3v-2.37c.7540636.8700155 1.8486795 1.3698269 3 1.3698269s2.2459364-.4998114 3-1.3698269z" fill="#cad9fc"/><path id="Shape" d="m47 44.92v6.81c-1.9837967.3600363-4.0162033.3600363-6 0v-6.81c1.7408476 1.4398677 4.2591524 1.4398677 6 0z" fill="#cad9fc"/><path id="Shape" d="m18 45c-.942683.568621-1.7187699 1.3757513-2.25 2.34-.2252226.3613133-.6036129.599479-1.0267936.6462824-.4231808.0468034-.8444711-.1029183-1.1432064-.4062824l-2.58-2.58c.5737747-1.7388072 2.1700881-2.9360423 4-3 0 1.6568542 1.3431458 3 3 3z" fill="#a4c2f7"/><path id="Shape" d="m25 45-2.58 2.58c-.2987353.3033641-.7200256.4530858-1.1432064.4062824-.4231807-.0468034-.801571-.2849691-1.0267936-.6462824-.5312301-.9642487-1.307317-1.771379-2.25-2.34 1.6568542 0 3-1.3431458 3-3 1.8299119.0639577 3.4262253 1.2611928 4 3z" fill="#a4c2f7"/><path id="Shape" d="m29 49v8c-.0032948 1.1032019-.8967981 1.9967052-2 2h-18c-1.10320187-.0032948-1.9967052-.8967981-2-2v-8c0-2.209139 1.790861-4 4-4l2.58 2.58c.2987353.3033641.7200256.4530858 1.1432064.4062824.4231807-.0468034.801571-.2849691 1.0267936-.6462824.5312301-.9642487 1.307317-1.771379 2.25-2.34.942683.568621 1.7187699 1.3757513 2.25 2.34.2252226.3613133.6036129.599479 1.0267936.6462824.4231808.0468034.8444711-.1029183 1.1432064-.4062824l2.58-2.58c2.209139 0 4 1.790861 4 4z" fill="#e8edfc"/><path id="Shape" d="m25 45-.719.719c1.0764174.7455583 1.7187714 1.9715988 1.719 3.281v8c-.0032948 1.1032019-.8967981 1.9967052-2 2h3c1.1032019-.0032948 1.9967052-.8967981 2-2v-8c0-2.209139-1.790861-4-4-4z" fill="#cad9fc"/><path id="Shape" d="m47 51.73v7.27h-6v-7.27c1.9837967.3600363 4.0162033.3600363 6 0z" fill="#a4c2f7"/><path id="Shape" d="m44 52v7h3v-7.27c-.9879068.1939615-1.9933362.2844502-3 .27z" fill="#7facfa"/><path id="Shape" d="m41 48v11h-6c-1.1032019-.0032948-1.9967052-.8967981-2-2v-1c0-4.418278 3.581722-8 8-8z" fill="#e8edfc"/><path id="Shape" d="m55 56v1c-.0032948 1.1032019-.8967981 1.9967052-2 2h-6v-11c4.418278 0 8 3.581722 8 8z" fill="#e8edfc"/><path id="Shape" d="m47 48v.586c3.0212562 1.2221582 4.9991043 4.1549113 5 7.414v1c-.0032948 1.1032019-.8967981 1.9967052-2 2h3c1.1032019-.0032948 1.9967052-.8967981 2-2v-1c0-4.418278-3.581722-8-8-8z" fill="#cad9fc"/><path id="Shape" d="m44.455 12.058-12.975-6.938c-.3-.16-.66-.16-.96 0l-12.975 6.938c-.4162798.2226392-.6284171.6993611-.5151435 1.1576472s.5230761.7812845.9951435.7843528h25.95c.4720674-.0030683.8818699-.3260667.9951435-.7843528s-.0988637-.935008-.5151435-1.1576472z" fill="#a4c2f7"/><path id="Shape" d="m44 7.51v-4.51c0-.55228475.4477153-1 1-1h4c.5522847 0 1 .44771525 1 1v7.69z" fill="#a4c2f7"/><path id="Shape" d="m49 2h-3c.5522847 0 1 .44771525 1 1v6.1l3 1.59v-7.69c0-.55228475-.4477153-1-1-1z" fill="#7facfa"/><path id="Shape" d="m3 57c.0032948 1.1032019.89679813 1.9967052 2 2h3c-1.10320187-.0032948-1.9967052-.8967981-2-2v-41.53l26.5-14.07-.12-.064c-.8649694-.45001414-1.8950306-.45001414-2.76 0l-26.62 14.134z" fill="#fff"/><path id="Rectangle-path" d="m2 15.47h2v8h-2z" fill="#fff"/><g fill="#428dff"><path id="Shape" d="m16.265 26.2c1.1411443-.2679863 2.3288557-.2679863 3.47 0 .0862656.0240902.1754341.0362036.265.036.5016818.0013867.9267426-.3691631.9937928-.866346.0670501-.4971829-.2446661-.9670946-.7287928-1.098654-1.4881838-.363001-3.0418162-.363001-4.53 0-.5326786.1463555-.8458554.6968214-.6995 1.2295.1463555.5326786.6968214.8458554 1.2295.6995z"/><path id="Shape" d="m3.02 20.47c-.55228475.0027614-1.00223858-.4427153-1.005-.995s.44271525-1.0022386.995-1.005h.01c.55228475 0 1 .4477153 1 1s-.44771525 1-1 1z"/><path id="Shape" d="m18.025 15h25.95c.9307459-.0031951 1.7403306-.6383441 1.9649592-1.5415827.2246287-.9032386-.1931336-1.8436196-1.0139592-2.2824173l-12.975-6.938c-.5935828-.31733483-1.3064172-.31733483-1.9 0l-12.977 6.938c-.8208256.4387977-1.2385879 1.3791787-1.0139592 2.2824173.2246286.9032386 1.0342133 1.5383876 1.9649592 1.5415827zm12.983-9 12.975 6.937.472-.881-.48.942-25.958-.061z"/><path id="Shape" d="m49 1h-4c-1.1045695 0-2 .8954305-2 2v2.848l-10.153-5.387c-1.1547789-.61404899-2.5392211-.61404899-3.694 0l-27.622 14.656c-.322578.1636727-.53162012.4887908-.54665781.8502036s.16627356.7027728.4741399.8926771c.30786634.1899042.69428872.1987451 1.01051791.0231193l27.621-14.655c.5688498-.3029339 1.2511502-.3029339 1.82 0l26.09 13.843v40.929c0 .5522847-.4477153 1-1 1h-1.184c.1184378-.320257.1806856-.6585603.184-1v-1c-.0062088-4.5806044-3.4482616-8.4275287-8-8.941v-1.713c.091-.1.172-.191.241-.277.1013571-.1367362.2403532-.2409834.4-.3 2.2371787-.6386146 3.9042944-2.5118308 4.279-4.808 1.7647292-.1884084 3.0977544-1.6863305 3.08-3.461v-5.5c-.0047706-4.0365954-2.432658-7.6756666-6.158-9.23-.5667587-2.7762667-3.0089735-4.7702876-5.8425-4.7702876s-5.2757413 1.9940209-5.8425 4.7702876c-3.7249499 1.5546433-6.1523979 5.1936469-6.157 9.23v5.5c-.0011517.2786692.0300573.5565298.093.828.36712 1.3998915 1.5443249 2.4387877 2.979 2.629.3745819 2.296441 2.0416689 4.1700145 4.279 4.809.1597874.0587583.2988516.1630564.4.3.069.086.15.179.241.276v1.713c-4.5498597.5178362-7.9878335 4.3657686-7.992 8.945v1c.0033144.3414397.0655622.679743.184 1h-2.368c.1184378-.320257.1806856-.6585603.184-1v-8c-.0074764-2.4927629-1.8527107-4.5979435-4.323-4.932-.7021182-1.4978307-2.0611539-2.5837287-3.677-2.938v-1.067c.0399137-.0372567.0915109-.0595213.146-.063 2.7017363-.0846859 4.8493932-2.2969407 4.854-5v-.055c1.4021446-.2157664 2.5418948-1.2442927 2.9-2.617.2517107-1.0482993.0084277-2.1541311-.66-3-.073-.091-.163-.161-.243-.244v-3.084c.0193961-.8791355-.3562772-1.720679-1.0237103-2.2932072s-1.5563462-.8157548-2.4222897-.6627928c-1.243-1.502-3.505-3.044-7.551-3.044s-6.308 1.542-7.554 3.044c-.86594349-.152962-1.75485664.0902646-2.42228973.6627928-.6674331.5725282-1.04310637 1.4140717-1.02371027 2.2932072v3.082c-.08.083-.17.153-.243.244-.66822546.8459611-.9118218 1.9515421-.661 3 .35870422 1.3742435 1.50013407 2.4036529 2.904 2.619v.055c.00833116 2.7153578 2.1754992 4.9312761 4.89 5 .042 0 .074.035.11.057v1.073c-1.6158461.3542713-2.9748818 1.4401693-3.677 2.938-2.47028928.3340565-4.31552362 2.4392371-4.323 4.932v8c.00331443.3414397.06556225.679743.184 1h-1.184c-.55228475 0-1-.4477153-1-1v-33.53c0-.5522847-.44771525-1-1-1s-1 .4477153-1 1v33.53c0 1.6568542 1.34314575 3 3 3h52c1.6568542 0 3-1.3431458 3-3v-40c.4590548-.0001712.859034-.3128673.9699815-.7583132.1109474-.4454458-.0956361-.9092189-.5009815-1.1246868l-9.469-5.024v-7.093c0-1.1045695-.8954305-2-2-2zm-7 45.653c1.2931943.4626823 2.7068057.4626823 4 0v4.228c-1.3286129.1586688-2.6713871.1586688-4 0zm2-27.653c1.4748531.0108398 2.8257227.8272699 3.521 2.128-.5030156-.0812155-1.0114858-.1240059-1.521-.128h-4c-.5095122.0040366-1.0179792.0468267-1.521.128.6952773-1.3007301 2.0461469-2.1171602 3.521-2.128zm-2 4h4c4.4162219.0049599 7.9950401 3.5837781 8 8v2.339c-.4686189-.2229968-.9810287-.3388014-1.5-.339h-.5v-2.464c-.0009922-1.8348899-1.1075812-3.4883718-2.8034558-4.1889655-1.6958745-.7005937-3.6468115-.310226-4.9425442.9889655-.054599.0887266-.1513201.1427748-.2555.1427748s-.200901-.0540482-.2555-.1427748c-1.2960155-1.297046-3.2455598-1.686048-4.9401199-.9857262-1.69456.7003219-2.8006747 2.352156-2.8028801 4.1857262v2.464h-.5c-.5189713.0001986-1.0313811.1160032-1.5.339v-2.339c.0049599-4.4162219 3.5837781-7.9950401 8-8zm2 9h-6v-1.464c.0001786-1.0263514.6189715-1.9514027 1.5675347-2.3433529s2.039851-.1735111 2.7644653.5533529c.9222612.9215038 2.4167388.9215038 3.339 0 .7248968-.7247186 1.8147919-.9417923 2.7620408-.550114s1.5655675 1.3150821 1.5669592 2.340114v1.464zm5.95 2c-.2365962 1.165162-1.2610592 2.0025063-2.45 2.0025063s-2.2134038-.8373443-2.45-2.0025063zm-7 0c-.2365962 1.165162-1.2610592 2.0025063-2.45 2.0025063s-2.2134038-.8373443-2.45-2.0025063zm-5.94 5.283c-.0492086-.7193416-.6449888-1.2789214-1.366-1.283-.7276929.0323352-1.3853816-.4309242-1.6-1.127-.1154114-.4495383-.0162291-.9271823.2686162-1.2936077.2848454-.3664254.723268-.5803568 1.1873838-.5793923h.776c.5344013 1.5421561 1.8683241 2.6693637 3.4780159 2.939035s3.2381533-.3612487 4.2459841-1.645035c1.0078308 1.2837863 2.6362923 1.9147063 4.2459841 1.645035s2.9436146-1.3968789 3.4780159-2.939035h.776c.4643423-.0010446.9029894.21302 1.187879.579698.2848897.3666781.3838985.8446238.268121 1.294302-.2153598.6971755-.8751276 1.1603291-1.604 1.126-.7202131.0056797-1.314379.5654075-1.363 1.284-.1191512 1.6757792-1.2742351 3.0978513-2.89 3.558-.5623421.1695074-1.0577256.5103676-1.417.975-.1116008.1378717-.2350734.2656943-.369.382l-.03.029c-1.347999 1.0292319-3.218001 1.0292319-4.566 0-.01-.011-.02-.019-.03-.029-.1336778-.1165677-.2571287-.2443679-.369-.382-.3592744-.4646324-.8546579-.8054926-1.417-.975-1.6154641-.461468-2.7703892-1.8832523-2.891-3.559zm-13.191 5.484-2.1 2.1c-.0924074.0930322-.2230386.1374394-.353.12-.1052146-.0101367-.199421-.0694793-.254-.16-.2991901-.5085117-.6514959-.9838395-1.051-1.418.8444481-.5116412 1.4690762-1.3183486 1.753-2.264.8650591.2378413 1.591724.8256969 2.005 1.622zm-7.819-3.189c1.2739632.5627085 2.7260368.5627085 4 0v.422c0 1.1045695-.8954305 2-2 2s-2-.8954305-2-2zm11-15.578v2.056c-.1650957-.0307164-.3321997-.0494321-.5-.056h-1.5v-2c-.0008733-.2694422.1099083-.5272084.306-.712.1823963-.1865985.4330776-.2906276.694-.288.5522847 0 1 .4477153 1 1zm-10 4c0 1.1045695-.8954305 2-2 2s-2-.8954305-2-2zm6 0c0 1.1045695-.8954305 2-2 2s-2-.8954305-2-2zm-5-8c3.014 0 4.748.994 5.752 2.04-.4838209.5382264-.7516456 1.2362804-.752 1.96v2h-10v-2c.0009258-.7240723-.2666534-1.4227714-.751-1.961 1.004-1.046 2.738-2.039 5.751-2.039zm-8 3c.2694422-.0008733.5272084.1099083.712.306.1865985.1823963.2906276.4330776.288.694v2h-1.5c-.1678003.0065679-.33490433.0252836-.5.056v-2.056c0-.5522847.44771525-1 1-1zm1 10v-.644c-.0005515-.7486696-.6073304-1.3554485-1.356-1.356-.72769293.0323352-1.38538156-.4309242-1.6-1.127-.11541139-.4495383-.01622912-.9271823.26861624-1.2936077.28484537-.3664254.72326791-.5803568 1.18738376-.5793923h1.5c-.0073962 1.6680192 1.0253639 3.1639686 2.5877074 3.748285 1.5623435.5843165 3.3232998.1332171 4.4122926-1.130285 1.0889928 1.2635021 2.8499491 1.7146015 4.4122926 1.130285 1.5623435-.5843164 2.5951036-2.0802658 2.5877074-3.748285h1.5c.4643423-.0010446.9029894.21302 1.187879.579698.2848897.3666781.3838985.8446238.268121 1.294302-.2149876.6956784-.8725838 1.1584618-1.6 1.126-.7486696.0005515-1.3554485.6073304-1.356 1.356v.644c.0005224 1.6276225-1.2968997 2.958767-2.924 3-.6769852.0122132-1.3122969.3293179-1.729.863-.5669029.7206359-1.4331058 1.1413248-2.35 1.1413248s-1.7830971-.4206889-2.35-1.1413248c-.4214874-.5375161-1.0639849-.8549032-1.747-.863-1.6176755-.0539522-2.9008994-1.3814253-2.9-3zm3.188 8.147c.2838376.9456957.9084874 1.7524311 1.753 2.264-.3995041.4341605-.7518099.9094883-1.051 1.418-.054579.0905207-.1487854.1498633-.254.16-.1299304.0171233-.2604246-.0272373-.353-.12l-2.1-2.1c.4133723-.7962245 1.1399977-1.3840481 2.005-1.622zm-6.188 13.853v-8c.00455598-1.5070164 1.12852789-2.7757682 2.624-2.962l2.245 2.245c.5294823.5308131 1.2753942.785731 2.019.69.7190394-.086821 1.3564957-.5039037 1.724-1.128.3612931-.6243969.8313626-1.179133 1.388-1.638.5566981.4588055 1.0267775 1.0135534 1.388 1.638.3675043.6240963 1.0049606 1.041179 1.724 1.128.1034843.0131332.2076858.0198128.312.02.6409821.0007785 1.2556419-.2548797 1.707-.71l2.245-2.245c1.4954721.1862318 2.619444 1.4549836 2.624 2.962v8c0 .5522847-.4477153 1-1 1h-2v-6c0-.5522847-.4477153-1-1-1s-1 .4477153-1 1v6h-10v-6c0-.5522847-.4477153-1-1-1s-1 .4477153-1 1v6h-2c-.55228475 0-1-.4477153-1-1zm27 1c-.5522847 0-1-.4477153-1-1v-1c.0040745-3.4765822 2.5590733-6.4233474 6-6.92v8.92zm7-5.106c1.329588.1413328 2.670412.1413328 4 0v5.106h-4zm6 5.106v-8.92c3.4396095.499063 5.9933527 3.4443801 6 6.92v1c0 .5522847-.4477153 1-1 1zm-3-55h4v6.031l-4-2.122z"/></g></g></g></svg>